<svg id="Layer_1" data-name="Layer 1" xmlns="http://www.w3.org/2000/svg" viewBox="0 0 310.25 528.63"><defs><style>.cls-1{fill:none;}.cls-2{fill:#fcfb5d;}.cls-3{fill:#be936c;}.cls-4{fill:#d5d350;}.cls-5{fill:#be936b;}.cls-6{fill:#d5d44e;}.cls-7{fill:#b0a998;}.cls-8{fill:#fef8e8;}.cls-9{fill:#231f20;}.cls-10{fill:#ebb58a;}.cls-11{fill:#f25c4d;}.cls-12{fill:#f0ebde;}.cls-13{fill:#292221;}.cls-14{fill:#f1ebdf;}.cls-15{fill:#dbd7cd;}.cls-16{fill:#bdbbb5;}.cls-17{fill:#bfbab3;}.cls-18{fill:#625d59;}.cls-19{fill:#f98476;}.cls-20{fill:#f88472;}.cls-21{fill:#fcfcfa;}.cls-22{fill:#231f21;}</style></defs><title>dog_side_butterfly</title><path class="cls-1" d="M764.5,621.5l.2.5.2-.1c1.2,1.5,2.4,3.1,3.7,4.6a28.1,28.1,0,0,1,.1,2.9c2.4,3.4,4.6,7,6.7,10.7a11.32,11.32,0,0,1,1.7,3.8c.2-1.1-.4-2.5-1.7-4.8-2.1-3.6-4.3-7.2-6.7-10.7,0-1-.1-1.9-.1-2.9-1.2-1.5-2.4-3.1-3.7-4.6l47.4-15.2h0l-48,15.3.2.5Z" transform="translate(-518.82 -149.84)"/><path class="cls-1" d="M596.7,613.8h0l48.4,15.1c-.8,1-.6,2.4-.7,3.6v.1a4.17,4.17,0,0,1,.6-2.7l.2.1.1-.5h0l.1-.5h-.2l-47.3-14.7-1.2-.4Z" transform="translate(-518.82 -149.84)"/><path class="cls-2" d="M652.1,218.4c1.3,1.9,2.4,3.9,4.4,5.3,9.4-.1,18-2,24.5-9.5,6.2-7.2,5-17.3-4.9-19.1-3.4-.6-6.3-1.3-9.5,0a6.68,6.68,0,0,1-5.7,0c1.7-2.6,3.2-5,4.6-7.3,1.5-2.5,3.3-4.9,3.4-8.1,1.7-1.7.2-4.4,1.8-6.2v-5.8c-1.6-1.8-.1-4.4-1.8-6.2-1.2-9.2-13.4-12.7-20.6-11.4-13.2,2.3-18.4,10.9-19.6,23.2-1.8,2.5.2,5.8-1.7,8.3,0,2.9-.1,5.9-.1,8.8h0C639,196.3,645,207.9,652.1,218.4Z" transform="translate(-518.82 -149.84)"/><path class="cls-2" d="M592.2,232.5c8.9,2.4,18,2.7,26.5-1.8,1.1-.6,2-1.2,3.4-.4-1.1,3.5-2.7,6.9-4.1,10.2-2.1,5.1-1.4,9.6,2.1,12.6,4.1,3.6,9.6,3.9,14.8,1.2,9.4-5,13.9-13,14.1-23.5-10.4-6.7-17-17.2-25.6-25.7-2.6-2.6-4.8-5.5-4.5-9.6h0c-.6-1.9-2.2-1.7-3.7-1.8-4.2-.1-8.3-.3-12.5-.2-13.4.2-18.4,4-22.4,16.8C577,221,581.2,229.6,592.2,232.5Z" transform="translate(-518.82 -149.84)"/><path class="cls-2" d="M774.8,245.5h0c9.7.6,16,7.4,23.1,12.8,3.6,2.8,6.4,6.8,10.9,8.5h0c6.8-1.9,12.7-5,16.9-10.9,3-4.1,4.4-8.8,2.5-13.4s-6.6-5.4-11.4-4.9c-4.7.2-8.2,3.3-12.7,5.7,2.3-5.4,4.7-10.2,4.9-15.7a3.18,3.18,0,0,1,1.3-.2,8.23,8.23,0,0,0-1.3-3.7c-1.6-18.7-11-22.8-25.1-18.8-5.2,1.5-8.1,5.9-11,10C770.7,225.2,771.8,235.4,774.8,245.5Z" transform="translate(-518.82 -149.84)"/><path class="cls-3" d="M647.6,228.2a3.75,3.75,0,0,1,1.4,2.5c6.2,2,7.9.5,7.5-7.1h0c-3.2.4-4.3-2.1-5.6-4.1-3.1-4.7-6.1-9.5-9.5-14s-7-8.8-12-11.8c-1.3-.8-2.6-1.6-2.7-3.3h0c-3.2.7-6.3,1.5-7.8,5h0C626.8,207.9,637.2,218.1,647.6,228.2Z" transform="translate(-518.82 -149.84)"/><path class="cls-3" d="M629.4,193.8c4.9,3,8.5,7.3,12,11.8s6.5,9.2,9.5,14c1.3,2,2.4,4.5,5.6,4.1h0c-2-1.3-3.1-3.3-4.4-5.3-7.1-10.5-13-22.1-25.4-27.9C626.8,192.3,628.2,193.1,629.4,193.8Z" transform="translate(-518.82 -149.84)"/><path class="cls-3" d="M623.4,205.1c8.5,8.5,15.2,19,25.6,25.7a3.36,3.36,0,0,0-1.4-2.5c-10.5-10.1-20.8-20.4-28.7-32.7h0C618.6,199.5,620.8,202.4,623.4,205.1Z" transform="translate(-518.82 -149.84)"/><path class="cls-4" d="M769.5,247.9c1.6-.7,3.2-1.5,4.8-2.2-.2-.1-.5-.3-.7-.4-3.9-8.4-4.6-17.2-3.2-26.3a7,7,0,0,1,2.3-4.3c-3.3-1.4-6.8-1.3-10.3-1.1-5.8.3-9.4,4.8-10,10.6-.5,4.8,1.9,8.3,4.4,11.6C760.3,240.6,763.9,245.4,769.5,247.9Z" transform="translate(-518.82 -149.84)"/><path class="cls-4" d="M770.4,219.1c-1.4,9-.7,17.8,3.2,26.3.2.1.5.3.7.4.2-.1.3-.1.5-.2h0c-3-10.1-4.1-20.3-2.1-30.7A6.12,6.12,0,0,0,770.4,219.1Z" transform="translate(-518.82 -149.84)"/><path class="cls-5" d="M803,265c-3.6-2.7-6.8-5.8-10.2-8.8-5.4-4.8-12-7.3-18.2-10.4-1.1,2.1-2.6,3.1-5.1,2.1-.3,3.1-.1,6.1,2.6,8.1,9,6.7,18.3,12.9,28.5,17.7h8.1c2.2-2.3-.5-4.6,0-6.9h0C806.2,268.1,804.6,266.3,803,265Z" transform="translate(-518.82 -149.84)"/><path class="cls-5" d="M797.8,258.3c-7-5.4-13.3-12.2-23.1-12.8-.1.1-.1.2-.2.4,6.3,3.1,12.9,5.6,18.2,10.4,3.3,3,6.6,6,10.2,8.8,1.7,1.3,3.2,3.1,5.7,1.8h0C804.2,265.1,801.5,261.1,797.8,258.3Z" transform="translate(-518.82 -149.84)"/><path class="cls-5" d="M774.6,245.9c-.1,0-.2-.1-.3-.1-1.6.7-3.2,1.5-4.8,2.2C772,249,773.5,247.9,774.6,245.9Z" transform="translate(-518.82 -149.84)"/><path class="cls-5" d="M774.8,245.5h0c-.2.1-.3.1-.5.2.1,0,.2.1.3.1S774.7,245.6,774.8,245.5Z" transform="translate(-518.82 -149.84)"/><path class="cls-6" d="M806.9,240c2.6-3,5.6-3.9,9.8-2.5.5-2.3-1.6-3.8-2-5.9-1.5-1.5-2-4.4-4.6-4.4h0A21.75,21.75,0,0,1,806.9,240Z" transform="translate(-518.82 -149.84)"/><path class="cls-6" d="M806.9,240a5.83,5.83,0,0,0-1.1,1.5A14.31,14.31,0,0,1,806.9,240Z" transform="translate(-518.82 -149.84)"/><path class="cls-6" d="M808.8,227.5c-.2,5.4-2.6,10.2-4.9,15.7,4.6-2.4,8-5.5,12.7-5.7-4.2-1.4-7.2-.5-9.8,2.5-.4.5-.7,1-1.1,1.5a14.31,14.31,0,0,0,1.1-1.5,21.62,21.62,0,0,0,3.2-12.7h0A3,3,0,0,0,808.8,227.5Z" transform="translate(-518.82 -149.84)"/><path class="cls-7" d="M800.6,273.7c2.7,2.9,5.4,3.2,8.1,0A8.34,8.34,0,0,1,800.6,273.7Z" transform="translate(-518.82 -149.84)"/><path class="cls-7" d="M800.6,273.7a8.34,8.34,0,0,0,8.1,0h-8.1Z" transform="translate(-518.82 -149.84)"/><path class="cls-1" d="M768.6,629.4c.4,7.8.3,15.6-2.3,23.1a23.44,23.44,0,0,1,6.5-5c2.6-1.4,4-2.4,4.2-3.6a14.41,14.41,0,0,0-1.7-3.8C773.2,636.4,771,632.8,768.6,629.4Z" transform="translate(-518.82 -149.84)"/><path class="cls-8" d="M644.5,632.6v-.1c.1-1.2-.2-2.6.7-3.6l-48.4-15-.1.4h0a2.18,2.18,0,0,1-.4-.5c-1.1,1.8.4,3.4.9,4.9q4.2,12.75,8.7,25.2c.9,2.4.8,4-1.8,5.2-4.9,2.2-7.4,6.3-8.8,11.3-2.2,4.9-.9,9,3.9,11.7l6.6,3.6a24.2,24.2,0,0,0,35.1-17.3c1.5-7.5,3.3-15,4.4-22.6a7.32,7.32,0,0,1-.8-2.5Z" transform="translate(-518.82 -149.84)"/><path class="cls-8" d="M818.8,444.9c-2.1.5-1.2,2.8-1.2,4.3,0,8.7.1,17.3-2.1,25.8-4.2,16.4-12.8,29.1-29.6,34.8a20.26,20.26,0,0,1-3.1.8l25,30.7a6.14,6.14,0,0,1,2.1-2.9c8.9-7.3,13.1-17.3,15.8-28.2,1.7-7.2,1.9-14.5,2.6-21.7,1.2-13.7-.3-27.2-5.7-40.1C821.7,446.8,821,444.5,818.8,444.9Z" transform="translate(-518.82 -149.84)"/><path class="cls-8" d="M782.3,510.7a4.33,4.33,0,0,1,.5-.1l-.6-.8a13.64,13.64,0,0,1-7.2-1.4c-9.7-4.7-20.3-6.3-30.9-6.8-23-1.1-45.8,1.9-68.8,2.5-4.1.1-7.7-.7-10.8-4-4-4.2-5.7-9.3-7-14.6-5.1-4.2-11.9-4.8-17.5-7.9-12.5-6.9-22.3-16.6-30.2-28.3-.6-.9-1.7-2-.5-3,.9-.8,1.8.3,2.6.9,13,9.2,27.5,14.7,43,18l-85.1-44.9c-.4,15.6-.7,31.1-1.3,46.7-.7,19.5-3.3,39-.7,58.5.5,4-.6,8.6,2.7,12,5.3-3.9,11.2-4.8,17.5-3.4a40.32,40.32,0,0,1,6.2,1.7c24.5,10.6,22.3,11.5,22.6,31.8.1,8.8.9,17.6.9,26.4.1,12.5-7.3,20-19.3,20.2l47.3,14.7c0-4.3-.3-8.6.6-12.8,1.3-6.4-.6-12.5-1.8-18.7-.3-1.4-1.3-3,.2-4.1,1.7-1.3,2.8.4,3.9,1.2,5.9,4.5,10.1,10.3,11.1,17.7.7,5.2,3.7,6.8,8.3,7.3a194.4,194.4,0,0,0,61.3-3.6c3.7-.8,8.3-.2,10.8-3s.2-7.2.5-10.9c.5-5.3.8-10.6,4.3-15.1.7-.8,1.4-2.1,2.8-1.5a2.88,2.88,0,0,1,1.9,2.7c-.1,13.5,8.2,23.1,15.1,33.4l-.2-.5,47.9-15.4h.1v.5h0c.7-21.1,1.5-42.3-3.7-63.1a1.7,1.7,0,0,1-.1-.7l-.8-1c0,.2-.1.3-.1.5Zm-3,45.7a19.38,19.38,0,0,1-18.4,12.1,16.59,16.59,0,0,1-14.1-6.2c-6.6-7.9-15.1-9.5-24.7-8.4-7.3.8-14.6,1.6-21.8-.5-9.3-2.7-13.7-10.9-11-20.2,6.2-20.8,26.2-30.1,45.8-20.9a169.57,169.57,0,0,0,27.7,10.9C777.6,527.5,784.9,543,779.3,556.4Z" transform="translate(-518.82 -149.84)"/><path class="cls-8" d="M587.6,412.5c-3.9,6.1-9.4,8.5-16.4,7.5l85.5,45.1-.2.4c6.8.6,13.5,1.8,20.3,1.6,16.1-.4,32-2.9,46.8-9.9-1.6-4.6-5.9-6.7-9.1-9.9h0c-11.6-3-22.2-8.8-26.1-15,18.9,9.1,37.7,15,58.2,7.8h0c1.5-1.5,3.5-2.2,5-3.9C763.9,422,765.1,405,764,387.5c-.2-2.6,1.3-6.1-2-8.1-3.4,5.9-6,7.4-12.2,4.9a29,29,0,0,0-23.1.5c-4.5,1.9-9.2,2.3-12.9-1.8s-3.9-8.9-2.2-14c3-9,9.3-15.5,16.2-21.6-9.9-2.8-20-2-30-.8-17.2,2.2-34,6.7-51.1,9.6a229.94,229.94,0,0,1-26.2,2.5h0c-2.4.9-4.9.4-7.4.6-13.8,1.5-27,4.1-35.5,16.8.3.2.5.5.8.6C593,384.2,596.7,398.5,587.6,412.5Zm19.9-9.1c3.5-7.3,5.5-14.9,5-23.1a14.67,14.67,0,0,1,1.7-8.2c1.4-2.6,3.8-4.4,6.5-3.3,12.8,5.2,25.2,1.3,37.7-1.2,10.5-2.1,15.6,2,15.3,12.6-2.5,26.3-16.3,42.9-43.3,46.8-7.3,1-14.2-1.5-19.7-6.7S604.2,410.2,607.5,403.4Z" transform="translate(-518.82 -149.84)"/><path class="cls-8" d="M782.3,510.7l25.3,31.1c0-.2.1-.3.1-.5l-25-30.7A.6.6,0,0,0,782.3,510.7Z" transform="translate(-518.82 -149.84)"/><path class="cls-8" d="M764.8,620.9c1.2,1.5,2.4,3.1,3.7,4.6a28.1,28.1,0,0,1,.1,2.9c2.4,3.4,4.6,7,6.7,10.7,1.3,2.3,2,3.7,1.7,4.8.3,1.8-.9,2.8-4.2,4.6a21.93,21.93,0,0,0-7.2,5.8v.1a18.12,18.12,0,0,1-2.2,4.4c-.1.1-.2.3-.3.4-.1.4-.1.7-.2,1.1-.7,4.2-.1,7.9,3.3,10.8a29.89,29.89,0,0,0,36.4,1.6c3.4-2.4,6-5.3,5-10,3.2-16.4,4-33,4.4-49.6.1-2.3.1-4.7.2-7l-.1-.3Z" transform="translate(-518.82 -149.84)"/><path class="cls-8" d="M772.9,647.5a22.05,22.05,0,0,0-6.5,5,13.36,13.36,0,0,1-.7,1.8,21.93,21.93,0,0,1,7.2-5.8c3.3-1.8,4.5-2.8,4.2-4.6C776.8,645.1,775.5,646.1,772.9,647.5Z" transform="translate(-518.82 -149.84)"/><path class="cls-8" d="M812.2,605.7l.1.3v-.4Z" transform="translate(-518.82 -149.84)"/><path class="cls-3" d="M596.6,613.3l-.1.5.3.1h0l.3.1c1.7-1.5,3.9-1.5,5.9-2.2,8.3-2.5,12.3-7.8,12.7-16.4.6-13-1.3-25.9-1.2-38.8,0-5.3-2.6-9.4-7.3-12.2a90.93,90.93,0,0,0-14.8-7c-5.7-2.1-11.3-2.5-17.1-.4a8.27,8.27,0,0,1-4.9.6c-.8,8.8,3.1,16.7,5.2,24.9,3.3,12.6,9.7,24.2,13.5,36.7,1.6,5.2,3.5,10.5,7.2,14.7a.71.71,0,0,1,.3-.6Z" transform="translate(-518.82 -149.84)"/><path class="cls-3" d="M596.6,614.3h0l.1-.4-.3-.1.1-.5h0c-.2.2-.3.4-.4.5l.5.5Z" transform="translate(-518.82 -149.84)"/><path class="cls-3" d="M575.2,536.9c5.7-2.1,11.4-1.7,17.1.4a87.16,87.16,0,0,1,14.8,7c4.7,2.8,7.4,6.9,7.3,12.2-.1,13,1.8,25.9,1.2,38.8-.4,8.6-4.5,13.9-12.7,16.4-2,.6-4.3.6-5.9,2.2l1.2.4c12.1-.3,19.4-7.8,19.3-20.2-.1-8.8-.8-17.6-.9-26.4-.2-20.3,2-21.2-22.6-31.8a33.5,33.5,0,0,0-6.2-1.7c-6.3-1.4-12.2-.5-17.5,3.4A9.19,9.19,0,0,0,575.2,536.9Z" transform="translate(-518.82 -149.84)"/><path class="cls-3" d="M596.6,614.3Z" transform="translate(-518.82 -149.84)"/><polygon class="cls-3" points="77.78 464.46 77.78 464.46 77.78 464.46 77.78 464.46"/><path class="cls-3" d="M569.9,419.3c.9-.9,2.1-.7,3.3-.7,6.6.1,11.2-3.3,13.8-8.9,5-10.5,6.1-23.8-6.9-30.1a4,4,0,0,1-2.7-3.3c-9.1-2.6-17.9-6.1-27.2-7.8a2.71,2.71,0,0,0-2.9,2.1c-3.4,9.5-6.9,18.9-6.7,29.2h0c10,6.1,18.4,14.6,29,20h0l.3-.5Z" transform="translate(-518.82 -149.84)"/><path class="cls-3" d="M548.7,368.1l1.5.3A13.12,13.12,0,0,0,548.7,368.1Z" transform="translate(-518.82 -149.84)"/><path class="cls-3" d="M580.1,379.6c13,6.3,11.8,19.5,6.9,30.1-2.6,5.5-7.2,9-13.8,8.9-1.1,0-2.4-.2-3.3.7l1.3.7c7,1.1,12.4-1.4,16.4-7.5,9.1-14,5.3-28.3-9.4-35.6-.3-.1-.5-.4-.8-.6A4.2,4.2,0,0,0,580.1,379.6Z" transform="translate(-518.82 -149.84)"/><path class="cls-9" d="M724.7,352.4a51.66,51.66,0,0,0-10.8,15.4,14.2,14.2,0,0,0-1.1,9.7c1.3,4.9,5.2,7.4,10.2,6.5a24.6,24.6,0,0,0,2.9-.7c8-3.4,16.1-4.1,24.2-.3,4.9,2.3,8-1.9,11.8-3.4.9-1.8.5-3.4,0-5.2-4.5-15.1-14.6-22.7-34.2-26.7h0C728.1,350,726,351,724.7,352.4Zm8.9,3.1c1.9,2.2.5,4.2-1.2,5.6-4.6,3.9-8.2,8.2-6.9,14.9.4,2.4-1.4,3.6-3.8,3.5a6.18,6.18,0,0,1-5.9-7.5c1.5-7.4,6.3-12.7,12.3-16.8C729.8,354.1,732.1,353.7,733.6,355.5Z" transform="translate(-518.82 -149.84)"/><path class="cls-9" d="M711.4,369.2c-1.7,5-1.6,9.9,2.2,14s8.5,3.6,12.9,1.8c7.7-3.2,15.1-3.6,23.1-.5,6.2,2.5,8.8.9,12.2-4.9-3.8,1.6-6.9,5.7-11.8,3.4-8.1-3.7-16.1-3-24.2.3a9.47,9.47,0,0,1-2.9.7c-5,.9-8.9-1.6-10.2-6.5-.9-3.4-.2-6.6,1.1-9.7a50.43,50.43,0,0,1,10.8-15.4c1.3-1.4,3.4-2.4,2.9-4.8h0C720.7,353.7,714.4,360.2,711.4,369.2Z" transform="translate(-518.82 -149.84)"/><path class="cls-10" d="M539.1,392.9a97.26,97.26,0,0,1,5.6-20.5c.8-2,1.6-4.4,4.1-4.3-5.1-1-9.8-1.5-14.8,2.3-3,2.3-4.9,5.2-7.1,7.9-4.8,5.9-8.7,12.9-8,20.6.8,8.8,4.3,17.1,11.4,23.3,2.3,2,4.7,1.7,7,1s3.3-2.9,3.3-5.5c-.1-6,.1-12,.1-18C538.3,397.9,538.7,395.3,539.1,392.9Z" transform="translate(-518.82 -149.84)"/><path class="cls-10" d="M547.3,370.5a2.71,2.71,0,0,1,2.9-2.1l-1.5-.3c-2.5-.1-3.3,2.2-4.1,4.3a97.26,97.26,0,0,0-5.6,20.5c-.4,2.4-.8,5,1.5,6.8h0C540.4,389.4,543.9,380,547.3,370.5Z" transform="translate(-518.82 -149.84)"/><path class="cls-11" d="M714.8,446.2a21.09,21.09,0,0,1,7.6,6.3c1.1,1.4,2.5,2.8,1.3,4.8a30,30,0,0,1,5,14.2c2.3,2.3,2,5.2,1.8,8.1h0a27.1,27.1,0,0,0,.4,4c.9,3.7,6.3,9.1,9.2,8.9,4.3-.3,6.7-3.1,8.1-6.9a16.66,16.66,0,0,0,.5-3.9c.4-12.1-3.4-23-9.9-33.1-6.3-4.6-13.8-2.2-20.7-3.8A2.67,2.67,0,0,0,714.8,446.2Zm18.9,26.1c2,.7,1.7,2.9,1.9,4.6-.3,1.2.3,3.1-1.1,2.9-2.9-.4-1.9-3.4-2.5-5.2C731.6,473.6,732.3,471.8,733.7,472.3Zm-11-25.5a3,3,0,0,1,3.2.7c3.2,2.9,4.8,6.8,5.9,10.8.8,2.7,1.9,5.5.5,8.6-2.5-6.4-5.1-12.6-9.9-17.6C721.8,448.6,721.4,447.4,722.7,446.8Z" transform="translate(-518.82 -149.84)"/><path class="cls-11" d="M722.3,452.4a22.15,22.15,0,0,0-7.6-6.3,2.13,2.13,0,0,0-.3,1.2h0c3.2,3.1,7.5,5.2,9.1,9.9C724.8,455.2,723.4,453.8,722.3,452.4Z" transform="translate(-518.82 -149.84)"/><path class="cls-12" d="M656.1,465.8c-2.6,1.4-5.2.1-7.6-.5a111,111,0,0,1-36.8-16.4c10.2,15.4,23.2,26,40,31.8,2.5.9,5.2,1.5,5.7,4.8a120.5,120.5,0,0,1-.8-19.9l-.2.4Z" transform="translate(-518.82 -149.84)"/><path class="cls-12" d="M651.7,480.7c-16.8-5.8-29.9-16.4-40-31.8a110.13,110.13,0,0,0,36.8,16.4c2.5.6,5,2,7.6.5l-1.3-.7c-15.4-3.3-29.9-8.9-43-18-.8-.5-1.6-1.7-2.6-.9-1.2,1-.1,2.1.5,3,7.9,11.7,17.6,21.4,30.2,28.3,5.7,3.1,12.4,3.7,17.5,7.9C656.9,482.2,654.2,481.5,651.7,480.7Z" transform="translate(-518.82 -149.84)"/><path class="cls-3" d="M623.5,356.8c6.6-.5,13.2-1.5,19.8-1.7a5.26,5.26,0,0,1,3.2,1.2c0-6-3-11.3-4.2-17-3.5-6.6-11.8-8.7-19.6-4.9h0A41.11,41.11,0,0,0,619,348c-.5,3.5-2.5,7.7,1.4,10.9A3.35,3.35,0,0,1,623.5,356.8Z" transform="translate(-518.82 -149.84)"/><path class="cls-3" d="M646.5,356.4a4.28,4.28,0,0,0-3.2-1.2c-6.6.2-13.2,1.2-19.8,1.7a3.35,3.35,0,0,0-3.1,2.1h0C629.1,358.4,637.9,357.8,646.5,356.4Z" transform="translate(-518.82 -149.84)"/><path class="cls-10" d="M634.7,331.6c3.9,1.1,7.8,2.5,7.6,7.7.9-2.1,1.9-1.1,2.9-.2,2.7,2.5,6.3,3.6,9.4,5.3,1.8,1,2.8.8,4-1.1a14.18,14.18,0,0,0-1.8-16.4c-2-2.3-3.8-5.1-7.3-5.5-7.5-.9-14.6.5-20.7,5-2.7,1.9-5.9,4-6.1,8h0C625.8,329.6,630.3,330.4,634.7,331.6Z" transform="translate(-518.82 -149.84)"/><path class="cls-10" d="M642.3,339.4c.2-5.2-3.7-6.7-7.6-7.7-4.4-1.2-8.9-2.1-12,2.8C630.4,330.7,638.8,332.8,642.3,339.4Z" transform="translate(-518.82 -149.84)"/><path class="cls-13" d="M715.5,443.9a94.19,94.19,0,0,1-20.9-6.7c3.2,1.5,6.3,3.1,9.5,4.7s6.9,2.6,10.2,4.1A2.27,2.27,0,0,1,715.5,443.9Z" transform="translate(-518.82 -149.84)"/><path class="cls-13" d="M740.2,443.8q-3.15.6-6.3.9c2.1.3,4,1.2,4.8,3.8l4.2-3.3c3.2-2.5,3.2-2.5,3.7-5C745.1,442.7,742.7,443.3,740.2,443.8Z" transform="translate(-518.82 -149.84)"/><path class="cls-13" d="M688.3,432.4c4,6.1,14.6,12,26.1,15h0a3.44,3.44,0,0,1-.1-1.4c-3.4-1.5-6.9-2.4-10.2-4.1s-6.3-3.3-9.5-4.7a90.77,90.77,0,0,0,20.9,6.7,5.84,5.84,0,0,1,3.5-.2c4.3.9,8.6.7,12.9.9a13.55,13.55,0,0,1,2,.2q3.15-.3,6.3-.9c2.5-.5,4.9-1.1,6.3-3.5h0C726.1,447.4,707.3,441.6,688.3,432.4Z" transform="translate(-518.82 -149.84)"/><path class="cls-13" d="M733.8,444.7a65.84,65.84,0,0,1-18.3-.9,2.39,2.39,0,0,0-1.2,2.1c.1.1.3.1.4.2h0a2.7,2.7,0,0,1,3.2-1.4c6.8,1.7,14.4-.8,20.7,3.8C737.8,445.9,736,445.1,733.8,444.7Z" transform="translate(-518.82 -149.84)"/><path class="cls-13" d="M714.8,446.2c-.1-.1-.3-.1-.4-.2a7.08,7.08,0,0,0,.1,1.4,2.13,2.13,0,0,1,.3-1.2Z" transform="translate(-518.82 -149.84)"/><path class="cls-13" d="M733.8,444.7c-.6-.1-1.3-.1-2-.2-4.3-.2-8.6.1-12.9-.9a5.2,5.2,0,0,0-3.5.2A63.09,63.09,0,0,0,733.8,444.7Z" transform="translate(-518.82 -149.84)"/><path class="cls-3" d="M762.7,523.3c-9.7-2.7-18.7-6.7-27.7-10.9-19.5-9.2-39.6.1-45.8,20.9-2.8,9.3,1.6,17.6,11,20.2,7.2,2,14.6,1.3,21.8.5,9.7-1.1,18.2.5,24.7,8.4,3.6,4.4,8.4,6.3,14.1,6.2a19.38,19.38,0,0,0,18.4-12.1C784.9,543,777.6,527.5,762.7,523.3Z" transform="translate(-518.82 -149.84)"/><path class="cls-3" d="M610.8,420.4a23.69,23.69,0,0,0,19.7,6.7c27-3.9,40.8-20.5,43.3-46.8.3-10.6-4.8-14.7-15.3-12.6-12.5,2.5-24.9,6.4-37.7,1.2-2.7-1.1-5.1.6-6.5,3.3a14.67,14.67,0,0,0-1.7,8.2,45.15,45.15,0,0,1-5,23.1C604.2,410.2,605.3,415.2,610.8,420.4Zm20.6-44c5.4-1,9.6.9,13,5,5.2.9,9.8,7.9,9.3,14-.4,5.4-4.8,9.2-11.3,8.7-9.3-.6-17-4.6-21.1-13.4C617.4,382.6,622.3,375.9,631.4,376.4Z" transform="translate(-518.82 -149.84)"/><path class="cls-14" d="M763,622.1c-.1-.1-.1-.2-.2-.4-7.8-9.7-14.2-20.1-15.7-33.3-3.4,2.4-3.6,5.6-4.2,8.6a49.75,49.75,0,0,0-.4,10.9c.1,5.4-1,7.3-6.3,8.5a226.89,226.89,0,0,1-29.5,4.9,176.16,176.16,0,0,1-36.3.1c-8.9-1-10.3-1.7-12.8-10.2-2-6.8-5.4-11.6-11.6-15.4,3.2,11.7,2,22.6.8,33.6a.6.6,0,0,0-.1.4c9.6,2.9,19.6,3.9,29.6,4.6,4.1.3,8.3.2,12.3,1.1a8.26,8.26,0,0,1,.7,1.3c13.7-.3,27.3-.4,40.8-3.6.6-.1,1.1-.3,1.7-.4-.4-.4-.7-.9-1.2-1.4A290.53,290.53,0,0,0,763,622.1Z" transform="translate(-518.82 -149.84)"/><path class="cls-14" d="M645.5,629.5l1.1.3c0-.1.1-.3.1-.4,1.3-10.9,2.4-21.8-.8-33.6,6.2,3.7,9.6,8.6,11.6,15.4,2.5,8.6,3.9,9.3,12.8,10.2a183.46,183.46,0,0,0,36.3-.1,226.89,226.89,0,0,0,29.5-4.9c5.3-1.2,6.4-3.1,6.3-8.5a49.53,49.53,0,0,1,.4-10.9c.6-3,.8-6.2,4.2-8.6,1.5,13.3,7.9,23.7,15.7,33.3.1.1.1.2.2.4a8.8,8.8,0,0,1,1.5-.5h0c-6.9-10.3-15.2-19.9-15.1-33.4a2.79,2.79,0,0,0-1.9-2.7c-1.4-.6-2.1.7-2.8,1.5-3.5,4.4-3.8,9.7-4.3,15.1-.3,3.7,2.1,8.1-.5,10.9s-7.1,2.2-10.8,3a191.5,191.5,0,0,1-61.3,3.6c-4.6-.5-7.6-2.1-8.3-7.3-1-7.4-5.2-13.2-11.1-17.7-1.1-.8-2.2-2.5-3.9-1.2-1.5,1.2-.5,2.7-.2,4.1,1.2,6.2,3.1,12.3,1.8,18.7-.9,4.2-.6,8.5-.6,12.8h.2Z" transform="translate(-518.82 -149.84)"/><path class="cls-15" d="M765.6,653.4v-.1a2.7,2.7,0,0,1,.7-.8c2.6-7.5,2.7-15.3,2.3-23.1-.4-.6-.9-1.3-1.3-1.9-1.2-1.6-2.6-3-3.8-4.6-1.2,1.3-3,1.8-4.6,2.5-8.8,3.4-18,5.4-27.2,7.4,3.1,3.7,2.5,4-2.7,6.9a20.74,20.74,0,0,0-5.6,4.1c-4.5,4.7-5.2,11.2-1.7,15.7,1.3,1.1,1.9,3,3.9,3.3,3.1-2.4,4.4-7,9.5-7.9-2,3.3-4.4,6.1-4.6,9.8h0a3.54,3.54,0,0,0,2.9,2.5c10.4,2.1,20.3,1.4,28.4-6.6a10.1,10.1,0,0,0,1.6-1.3c.1-.5.2-.9.3-1.4C764.4,656.5,765,654.9,765.6,653.4Z" transform="translate(-518.82 -149.84)"/><path class="cls-15" d="M765.7,654.3c.2-.6.5-1.2.7-1.8-.2.3-.5.5-.7.8v.1a18.12,18.12,0,0,1-2.2,4.4c-.1.4-.2.9-.3,1.4a1.38,1.38,0,0,0,.3-.4A11.83,11.83,0,0,1,765.7,654.3Z" transform="translate(-518.82 -149.84)"/><path class="cls-15" d="M765.6,654.4v-.1a13.5,13.5,0,0,0-2.2,4.5A18.12,18.12,0,0,0,765.6,654.4Z" transform="translate(-518.82 -149.84)"/><path class="cls-15" d="M764.8,621.9l-.2.1-.2-.5a7.1,7.1,0,0,1-1,1.4c1.1,1.6,2.6,3,3.8,4.6a21.41,21.41,0,0,1,1.3,1.9c0-1-.1-1.9-.1-2.9C767.3,625,766,623.5,764.8,621.9Z" transform="translate(-518.82 -149.84)"/><path class="cls-15" d="M763.5,622.9a3.51,3.51,0,0,1-.5-.8,280.36,280.36,0,0,1-32.5,9.3,17.41,17.41,0,0,0,1.2,1.4c9.2-2.1,18.4-4,27.2-7.4C760.5,624.7,762.3,624.1,763.5,622.9Z" transform="translate(-518.82 -149.84)"/><path class="cls-15" d="M764.5,621.5a8.8,8.8,0,0,1-1.5.5,5.58,5.58,0,0,0,.5.8,3.45,3.45,0,0,0,1-1.3Z" transform="translate(-518.82 -149.84)"/><path class="cls-15" d="M651.1,633c-1.7-.3-3.6-.7-4.8-2a26.53,26.53,0,0,1-.6,3c-.1.7-.2,1.5-.3,2.2,1.3,2.5,3.4,4.5,5.2,6.6,2.4,2.8,2.9,5.2.5,8.3-1.8,2.4-3.9,5.1-1.8,8.5.5,8.9,2.6,11.6,9.1,11.8,0-4.2.6-8.2,5.3-10.8-1.2,3.9-2.5,7.2-2.2,10.9h0a5.14,5.14,0,0,0,4.9,1.8c9.5-1.7,18.1-5,23.3-13.9a4.27,4.27,0,0,0,2.4-3c.9-6.8.4-13.5-2.8-19.6h-.5A189.82,189.82,0,0,1,651.1,633Z" transform="translate(-518.82 -149.84)"/><path class="cls-15" d="M646.3,631a5.3,5.3,0,0,1-.8-1.5l-.1.5-.2-.1a4.31,4.31,0,0,0-.6,2.7,12.24,12.24,0,0,0,.9,2.7c0,.2-.1.5-.1.7s.1.2.1.3c.1-.7.2-1.5.3-2.2C646.1,633,646.1,632,646.3,631Z" transform="translate(-518.82 -149.84)"/><path class="cls-15" d="M644.5,632.6v.9a18.29,18.29,0,0,0,.8,2.5c0-.2.1-.5.1-.7A14.26,14.26,0,0,1,644.5,632.6Z" transform="translate(-518.82 -149.84)"/><path class="cls-15" d="M676.1,634.4c-10-.7-19.9-1.8-29.6-4.6l-.3,1.2c1.2,1.4,3,1.7,4.8,2a190.57,190.57,0,0,0,37.7,3.8h.5c-.2-.4-.5-.9-.7-1.3C684.4,634.6,680.3,634.7,676.1,634.4Z" transform="translate(-518.82 -149.84)"/><path class="cls-15" d="M645.5,629.5a5.3,5.3,0,0,0,.8,1.5,5.27,5.27,0,0,1,.3-1.2c-.4-.1-.8-.2-1.1-.3Z" transform="translate(-518.82 -149.84)"/><path class="cls-16" d="M731.1,658.3c-1.7,1.7-2.4,4.7-5.7,4.4,1.6.7,3.3,1.3,4.9,2C729.6,661.4,729.6,661.4,731.1,658.3Z" transform="translate(-518.82 -149.84)"/><path class="cls-16" d="M734.9,654.8c-5.1.8-6.4,5.4-9.5,7.9,3.3.3,4-2.7,5.7-4.4-1.5,3.1-1.5,3.1-.8,6.4h0C730.5,660.9,732.9,658.2,734.9,654.8Z" transform="translate(-518.82 -149.84)"/><path class="cls-17" d="M660.8,665.9c-1.2,1.6-.2,4.2-2.3,5.6,1,0,2,.1,3,.1C659.7,669.8,660,667.8,660.8,665.9Z" transform="translate(-518.82 -149.84)"/><path class="cls-17" d="M663.7,660.6c-4.7,2.6-5.2,6.6-5.3,10.8,2.1-1.3,1.2-3.9,2.3-5.6-.8,1.9-1.1,3.9.7,5.6h0C661.2,667.9,662.6,664.5,663.7,660.6Z" transform="translate(-518.82 -149.84)"/><path class="cls-18" d="M715.9,372c-.8,4.1,2.2,7.7,5.9,7.5,2.4,0,4.2-1.2,3.8-3.5-1.3-6.7,2.3-11,6.9-14.9,1.7-1.4,3.1-3.4,1.2-5.6-1.6-1.8-3.8-1.5-5.5-.3C722.1,359.4,717.3,364.6,715.9,372Z" transform="translate(-518.82 -149.84)"/><path class="cls-19" d="M732.3,466.9c1.4-3.1.2-5.9-.5-8.6-1.1-4-2.7-7.9-5.9-10.8a3,3,0,0,0-3.2-.7c-1.3.6-.8,1.9-.2,2.5C727.2,454.3,729.8,460.5,732.3,466.9Z" transform="translate(-518.82 -149.84)"/><path class="cls-20" d="M732,474.6c.6,1.8-.4,4.8,2.5,5.2,1.4.2.9-1.8,1.1-2.9-.2-1.7.1-3.9-1.9-4.6C732.3,471.8,731.6,473.6,732,474.6Z" transform="translate(-518.82 -149.84)"/><path class="cls-21" d="M642.4,404.2c6.5.4,10.9-3.4,11.3-8.7.5-6.2-4.1-13.1-9.3-14,2.7,5.5,2.4,9.2-1.1,11.3-3.8,2.4-10.3.5-13.5-4-3.4-4.7-2.9-8.3,1.7-12.4-9.2-.5-14,6.2-10.2,14.4C625.5,399.6,633.1,403.6,642.4,404.2Z" transform="translate(-518.82 -149.84)"/><path class="cls-22" d="M630.5,379.7a8.36,8.36,0,0,0,4.5,11.1c2.5,1.1,5.2,1.5,7.6-.2s2.1-3.9,1.5-6.3a3.3,3.3,0,0,1,.3-2.9c-3.4-4.1-7.6-6-13-5C631.6,377.6,630.9,378.6,630.5,379.7Z" transform="translate(-518.82 -149.84)"/><path class="cls-22" d="M629.8,388.8c3.3,4.5,9.7,6.4,13.5,4,3.5-2.2,3.8-5.8,1.1-11.3a3.3,3.3,0,0,0-.3,2.9c.5,2.4.8,4.7-1.5,6.3s-5.1,1.3-7.6.2a8.29,8.29,0,0,1-4.5-11.1c.4-1.1,1.1-2.1.9-3.3C626.8,380.5,626.3,384.1,629.8,388.8Z" transform="translate(-518.82 -149.84)"/></svg>