<?xml version="1.0" encoding="utf-8"?>
<!-- Generator: Adobe Illustrator 23.0.1, SVG Export Plug-In . SVG Version: 6.00 Build 0)  -->
<svg version="1.1" id="Layer_1" xmlns="http://www.w3.org/2000/svg" xmlns:xlink="http://www.w3.org/1999/xlink" x="0px" y="0px"
	 viewBox="0 0 1294 1600" style="enable-background:new 0 0 1294 1600;" xml:space="preserve">
<style type="text/css">
	.st0{fill:#FEF8E8;}
	.st1{fill-rule:evenodd;clip-rule:evenodd;fill:#C6BFA9;}
	.st2{fill-rule:evenodd;clip-rule:evenodd;fill:#C9BFA7;}
	.st3{fill-rule:evenodd;clip-rule:evenodd;fill:#EBB68A;}
	.st4{fill-rule:evenodd;clip-rule:evenodd;fill:#C6BFAB;}
	.st5{fill-rule:evenodd;clip-rule:evenodd;fill:#CDBFA2;}
	.st6{fill-rule:evenodd;clip-rule:evenodd;fill:#C3C0AD;}
	.st7{fill-rule:evenodd;clip-rule:evenodd;fill:#BF936C;}
	.st8{fill-rule:evenodd;clip-rule:evenodd;fill:#AFC6BF;}
	.st9{fill-rule:evenodd;clip-rule:evenodd;fill:#C0C1AE;}
	.st10{fill-rule:evenodd;clip-rule:evenodd;fill:#C0C2AA;}
	.st11{fill-rule:evenodd;clip-rule:evenodd;fill:#D7BB9C;}
	.st12{fill-rule:evenodd;clip-rule:evenodd;fill:#CABFA5;}
	.st13{fill-rule:evenodd;clip-rule:evenodd;fill:#C9BFA6;}
	.st14{fill-rule:evenodd;clip-rule:evenodd;fill:#B2B49F;}
	.st15{fill-rule:evenodd;clip-rule:evenodd;fill:#B99878;}
	.st16{fill-rule:evenodd;clip-rule:evenodd;fill:#BE936C;}
	.st17{fill-rule:evenodd;clip-rule:evenodd;fill:#242020;}
	.st18{fill-rule:evenodd;clip-rule:evenodd;fill:#8C8882;}
	.st19{fill-rule:evenodd;clip-rule:evenodd;fill:#84664D;}
	.st20{fill-rule:evenodd;clip-rule:evenodd;fill:#6B6861;}
	.st21{fill-rule:evenodd;clip-rule:evenodd;fill:#231F1F;}
	.st22{fill-rule:evenodd;clip-rule:evenodd;fill:#312520;}
	.st23{fill-rule:evenodd;clip-rule:evenodd;fill:#ACB5A4;}
	.st24{fill-rule:evenodd;clip-rule:evenodd;fill:#C6C0A7;}
	.st25{fill-rule:evenodd;clip-rule:evenodd;fill:#D4D2C8;}
	.st26{fill-rule:evenodd;clip-rule:evenodd;fill:#231F20;}
	.st27{fill-rule:evenodd;clip-rule:evenodd;fill:#625D59;}
	.st28{fill-rule:evenodd;clip-rule:evenodd;fill:#DDD8CD;}
	.st29{fill-rule:evenodd;clip-rule:evenodd;fill:#A4423F;}
	.st30{fill-rule:evenodd;clip-rule:evenodd;fill:#A93C37;}
	.st31{fill-rule:evenodd;clip-rule:evenodd;fill:#DB6D61;}
	.st32{fill-rule:evenodd;clip-rule:evenodd;fill:#C59D9A;}
	.st33{fill-rule:evenodd;clip-rule:evenodd;fill:#DCD8CD;}
	.st34{fill-rule:evenodd;clip-rule:evenodd;fill:#F35C4E;}
	.st35{fill-rule:evenodd;clip-rule:evenodd;fill:#A84E49;}
	.st36{fill-rule:evenodd;clip-rule:evenodd;fill:#EA988C;}
	.st37{fill-rule:evenodd;clip-rule:evenodd;fill:#D17C6E;}
	.st38{fill-rule:evenodd;clip-rule:evenodd;fill:#D17871;}
	.st39{fill-rule:evenodd;clip-rule:evenodd;fill:#B4AEAF;}
	.st40{fill-rule:evenodd;clip-rule:evenodd;fill:#C9938D;}
	.st41{fill-rule:evenodd;clip-rule:evenodd;fill:#FEF8E8;}
	.st42{fill-rule:evenodd;clip-rule:evenodd;fill:#FEDCCB;}
	.st43{fill-rule:evenodd;clip-rule:evenodd;fill:#FCC1AB;}
	.st44{fill-rule:evenodd;clip-rule:evenodd;fill:#F2897B;}
	.st45{fill-rule:evenodd;clip-rule:evenodd;fill:#E4BF7E;}
	.st46{fill-rule:evenodd;clip-rule:evenodd;fill:#E27D43;}
	.st47{fill-rule:evenodd;clip-rule:evenodd;fill:#EC9890;}
	.st48{fill-rule:evenodd;clip-rule:evenodd;fill:#ED7645;}
	.st49{fill-rule:evenodd;clip-rule:evenodd;fill:#F7AEA1;}
	.st50{fill-rule:evenodd;clip-rule:evenodd;fill:#F6A899;}
	.st51{fill-rule:evenodd;clip-rule:evenodd;fill:#EA8274;}
	.st52{fill-rule:evenodd;clip-rule:evenodd;fill:#F8AC9D;}
	.st53{fill-rule:evenodd;clip-rule:evenodd;fill:#E1753C;}
	.st54{fill-rule:evenodd;clip-rule:evenodd;fill:#ECCC77;}
	.st55{fill-rule:evenodd;clip-rule:evenodd;fill:#F1CD76;}
	.st56{fill-rule:evenodd;clip-rule:evenodd;fill:#F0C463;}
	.st57{fill-rule:evenodd;clip-rule:evenodd;fill:#F7D790;}
	.st58{fill-rule:evenodd;clip-rule:evenodd;fill:#EFBF54;}
	.st59{fill-rule:evenodd;clip-rule:evenodd;fill:#F8D88F;}
	.st60{fill-rule:evenodd;clip-rule:evenodd;fill:#FDF3C6;}
	.st61{fill-rule:evenodd;clip-rule:evenodd;fill:#F2BB45;}
	.st62{fill-rule:evenodd;clip-rule:evenodd;fill:#F8D890;}
	.st63{fill-rule:evenodd;clip-rule:evenodd;fill:#FCF7E3;}
	.st64{fill-rule:evenodd;clip-rule:evenodd;fill:#F7D78B;}
	.st65{fill-rule:evenodd;clip-rule:evenodd;fill:#CF9A3A;}
	.st66{fill-rule:evenodd;clip-rule:evenodd;fill:#CF9A3B;}
	.st67{fill-rule:evenodd;clip-rule:evenodd;fill:#B9CBBB;}
	.st68{fill-rule:evenodd;clip-rule:evenodd;fill:#CD993A;}
	.st69{fill-rule:evenodd;clip-rule:evenodd;fill:#FAE5B8;}
	.st70{fill-rule:evenodd;clip-rule:evenodd;fill:#CEA459;}
	.st71{fill-rule:evenodd;clip-rule:evenodd;fill:#DBD8CD;}
	.st72{fill-rule:evenodd;clip-rule:evenodd;fill:#78A0A0;}
	.st73{fill-rule:evenodd;clip-rule:evenodd;fill:#DDD9CD;}
	.st74{fill-rule:evenodd;clip-rule:evenodd;fill:#DCD9CD;}
	.st75{fill-rule:evenodd;clip-rule:evenodd;fill:#DED9CD;}
	.st76{fill-rule:evenodd;clip-rule:evenodd;fill:#DEDACE;}
	.st77{fill-rule:evenodd;clip-rule:evenodd;fill:#DDD9CE;}
</style>
<path class="st0" d="M917.4,552.5c-7-40.3-20-78.7-39-115c-24.9-45.9-52.4-90.2-82.5-133c-17.1-25.2-34.9-49.8-53.5-74
	c-19.1-25.1-42.9-44.3-71.5-57.5c-6.7-2.3-13.3-4.7-20-7c-7.2-0.9-14.2-2.4-21-4.5c-17.5-1.5-34.8-0.3-52,3.5c-18,5.3-36,10.7-54,16
	c-35.1,12.4-64.4,32.9-88,61.5c0,0.7-0.3,1-1,1c-7,9.8-13.3,19.9-19,30.5c11.2-4.9,22.5-9.9,34-15c30.9-12.4,62.6-14.8,95-7
	c21.7,5.7,38.2,18.2,49.5,37.5c13,28.5,14,57.5,3,87c-12.2,21.5-24.2,43.1-36,65c-1.6,6.1-3.6,12.1-6,18c-6.4,42.2-24.1,78.9-53,110
	c-22.4,22.7-46.2,43.6-71.5,62.5c-6.3,4.2-13,7.7-20,10.5c6.5,18.4,14.7,36,24.5,53c0.5,1.6,0.7,3.3,0.5,5c1.2-0.2,2.2,0.1,3,1
	c7.4,11.9,15.6,23.2,24.5,34c55.4,60.9,124.6,91.3,207.5,91c69.4-0.4,129.5-23.7,180.1-69.8l-0.4-0.5c7.9-7.2,9.5-8.9,9.5-8.9
	l0.4,0.3c2.2-2.4,4.3-4.8,6.5-7.1C911.1,685.5,927.9,622.9,917.4,552.5z"/>
<path class="st1" d="M767.5,52.5c-10.8-0.3-21.4,0.4-32,2C746,51.5,756.7,50.8,767.5,52.5z"/>
<path class="st2" d="M727.5,57.5c-3.7,2.5-7.7,4.5-12,6c-0.1-1,0.2-1.8,1-2.5C720.2,59.7,723.9,58.5,727.5,57.5z"/>
<path class="st3" d="M767.5,52.5c13.3,1.2,26.3,3.7,39,7.5c0.6,1.3,1.6,2.1,3,2.5c3.2,0.6,6.3,1.3,9.5,2c5.4,3.6,10.9,7.1,16.5,10.5
	c4,1.9,8,3.7,12,5.5c6,5.3,12,10.7,18,16c3.8,5.6,7.8,11.1,12,16.5c1.4,1.6,2,3.4,2,5.5c1.9,7.4,3.9,14.8,6,22c0,1,0,2,0,3
	c1.2,10.7,1.2,21.3,0,32c-2,5.1-3.7,10.4-5,16c-3.2,5.1-5.8,10.5-8,16c-3.3,2.6-6.3,5.6-9,9c-4,0.9-8,1.9-12,3c-1.1,0.1-2.1,0-3-0.5
	c1.4-0.9,1.2-1.4-0.5-1.5c-4.9,1.4-9.8,1-14.5-1c-8.7-5.7-17.3-11.3-26-17c0.3,2.9,0,5.6-1,8c-0.3-3.4,0.1-6.7,1-10
	c-8.4-6.9-15.5-14.9-21.5-24c-7.7-12.7-15.3-25.3-23-38c-12.7-17.6-28.9-30.8-48.5-39.5c-12.3-2.5-24.3-1.7-36,2.5
	c0.6-0.9,0.9-1.9,1-3c2.7-2.7,5-5.7,7-9c0.7,0,1-0.3,1-1c3-1,5-3,6-6c0.3,0,0.7,0,1,0c3-2.7,6-5.4,9-8c2.9-2.5,5.9-5,9-7.5
	c0.9-0.5,1.9-0.6,3-0.5c4.3-1.5,8.3-3.5,12-6c2.6-1.4,5.2-2.4,8-3C746.1,52.9,756.7,52.2,767.5,52.5z"/>
<path class="st4" d="M703.5,71.5c-3,2.6-6,5.3-9,8C696.2,75.4,699.2,72.8,703.5,71.5z"/>
<path class="st5" d="M693.5,79.5c-1,3-3,5-6,6c1.2-1.6,2.4-3.2,3.5-5C691.7,79.7,692.5,79.4,693.5,79.5z"/>
<path class="st6" d="M686.5,86.5c-2,3.3-4.3,6.3-7,9C680.7,91.6,683,88.6,686.5,86.5z"/>
<path class="st7" d="M806.5,207.5c-4.9,26.3-7.4,53-7.5,80c-0.5,5.5-1.4,10.9-2.5,16c-17.1-25.2-34.9-49.8-53.5-74
	c-19.1-25.1-42.9-44.3-71.5-57.5c-6.7-2.3-13.3-4.7-20-7c-7.2-0.9-14.2-2.4-21-4.5c1.8-0.9,3.3-2.2,4.5-4c3.4-10.4,9-19.4,17-27
	c1.2-2.8,2.5-5.4,4-8c7.4-7.9,14.9-15.6,22.5-23c11.7-4.2,23.7-5,36-2.5c19.6,8.7,35.8,21.9,48.5,39.5c7.7,12.7,15.3,25.3,23,38
	c6,9.1,13.1,17.1,21.5,24C806.6,200.8,806.2,204.1,806.5,207.5z"/>
<path class="st8" d="M879.5,118.5c2.1,0.5,3.6,1.9,4.5,4c0.3-0.7,0.7-1.3,1-2c-0.7,6.7-0.5,13.3,0.5,20
	C883.4,133.3,881.4,125.9,879.5,118.5z"/>
<path class="st9" d="M885.5,143.5c1.3,3.8,2,7.9,2,12.5c0.1,6.7-0.5,13.2-2,19.5C886.7,164.8,886.7,154.2,885.5,143.5z"/>
<path class="st10" d="M872.5,207.5c-2,4-5,7-9,9C866.2,213.1,869.2,210.1,872.5,207.5z"/>
<path class="st11" d="M833.5,216.5c4.7,2,9.6,2.4,14.5,1c1.7,0.1,1.9,0.6,0.5,1.5c0.9,0.5,1.9,0.6,3,0.5c-0.8,1.2-2.2,1.9-4,2
	c-4.1-0.5-8.1-1.3-12-2.5C834.6,218.3,834,217.5,833.5,216.5z"/>
<path class="st12" d="M335.5,239.5c-10.7-1.2-21.3-1.2-32,0c4.5-1.3,9.3-2,14.5-2c4.8,0.2,9.7,0.3,14.5,0.5
	C333.7,238.2,334.7,238.7,335.5,239.5z"/>
<path class="st3" d="M335.5,239.5c1,0,2,0,3,0c1.1,1.7,2.8,2.4,5,2c0,0.3,0,0.7,0,1c-10.7,9.5-19.9,20.5-27.5,33
	c-14.2,24.8-24.2,51.1-30,79c-1,9.1-0.5,18.1,1.5,27c0.8,9.6,3,19,6.5,28c6.1,14.5,13.1,28.5,21,42c0.3,4.3,1.4,8.3,3.5,12
	c2.1,8.8,0.8,16.8-4,24c-6.9,3.3-14.2,5-22,5c-7-1.3-14-2.3-21-3c-12.3-5.4-22.8-13.4-31.5-24c-5.3-8.7-10.7-17.3-16-26
	c-2.8-8.5-6.3-16.6-10.5-24.5c-10.4-29.7-13.8-60.2-10-91.5c2.7-7.6,5-15.2,7-23c2.7-6.8,6.9-12.5,12.5-17c0.3-1.3,0.7-2.7,1-4
	c7.6-6.9,15.4-13.4,23.5-19.5c9.1-5.2,18.5-9.9,28-14c4.2-0.9,8.2-2,12-3.5c4.1,0.1,7.7-0.9,11-3c1.7,0,3.3,0,5,0
	C314.2,238.3,324.8,238.3,335.5,239.5z"/>
<path class="st13" d="M298.5,239.5c-3.3,2.1-6.9,3.1-11,3C290.9,240.7,294.5,239.7,298.5,239.5z"/>
<path class="st14" d="M338.5,239.5c9.6,0.5,19.3,0.5,29,0c-7.8,1.7-15.8,2.3-24,2C341.3,241.9,339.6,241.2,338.5,239.5z"/>
<path class="st15" d="M367.5,239.5c23,0.8,46,1.5,69,2c0,0.7-0.3,1-1,1c-30.7,0-61.3,0-92,0c0-0.3,0-0.7,0-1
	C351.7,241.8,359.7,241.2,367.5,239.5z"/>
<path class="st16" d="M343.5,242.5c30.7,0,61.3,0,92,0c-7,9.8-13.3,19.9-19,30.5c11.2-4.9,22.5-9.9,34-15c30.9-12.4,62.6-14.8,95-7
	c21.7,5.7,38.2,18.2,49.5,37.5c13,28.5,14,57.5,3,87c-12.2,21.5-24.2,43.1-36,65c-1.6,6.1-3.6,12.1-6,18c-6.4,42.2-24.1,78.9-53,110
	c-22.4,22.7-46.2,43.6-71.5,62.5c-6.3,4.2-13,7.7-20,10.5c-4.1-11.2-7.8-22.5-11-34c-2.1-14.2-4.9-28.2-8.5-42
	c-4.6-28.5-7.5-57.2-8.5-86c-0.4-17.8-1-35.5-2-53c-4.8-2.6-9.2-5.9-13-10c-14.9-8.1-29.9-16.3-45-24.5c-7.3-0.8-14-3.3-20-7.5
	c-5.4-0.9-10.7-1.9-16-3c-2-8.9-2.5-17.9-1.5-27c5.8-27.9,15.8-54.2,30-79C323.6,263,332.8,252,343.5,242.5z"/>
<path class="st17" d="M692.5,379.5c-1.4,2-2.1,4.3-2,7c0,1,0,2,0,3c-0.7,1.3-1.3,2.7-2,4c-3.7-16.3-3.8-32.6-0.5-49
	c10.1-24.8,27.9-33.6,53.5-26.5c15.9,8.3,28.3,20.3,37,36c-7.5-4.1-15.5-7.4-24-10c-18.5-3.8-34.5,0.8-48,14
	C699.7,363.8,695,370.9,692.5,379.5z"/>
<path class="st18" d="M692.5,379.5c0.1,2.7-0.6,5-2,7C690.4,383.8,691.1,381.5,692.5,379.5z"/>
<path class="st19" d="M486.5,388.5c-7-1.3-14-1.3-21,0c3.2-1.5,6.7-2.2,10.5-2C479.8,386.3,483.3,387,486.5,388.5z"/>
<path class="st20" d="M690.5,389.5c0.2,3.7,0,7.3-0.5,11c-1-2.2-1.5-4.6-1.5-7C689.2,392.2,689.8,390.8,690.5,389.5z"/>
<path class="st21" d="M486.5,388.5c13.1,3.4,24.1,10,33,20c-1.4,1.9-3.4,2.9-6,3c-6.1-1.3-12.1-1.3-18,0c-30.5,5.7-47.3,24-50.5,55
	c-7.4-17.1-9.4-34.7-6-53c4.5-13,13.3-21.3,26.5-25C472.5,387.2,479.5,387.2,486.5,388.5z"/>
<path class="st22" d="M519.5,408.5c3.4,2.3,6.5,5,9.5,8c1.6,2.6,3.6,5,6,7c0.7,0.7,0.7,1.3,0,2c-11.1-10.2-24.3-14.9-39.5-14
	c5.9-1.3,11.9-1.3,18,0C516.1,411.4,518.1,410.4,519.5,408.5z"/>
<path class="st23" d="M381.5,426.5c1,17.5,1.6,35.2,2,53C381.5,462.2,380.8,444.5,381.5,426.5z"/>
<path class="st24" d="M314.5,487.5c-1.7,2.3-4,3.8-7,4.5c-12.4,2.6-24.4,1.7-36-2.5c7,0.7,14,1.7,21,3
	C300.3,492.5,307.6,490.8,314.5,487.5z"/>
<path class="st25" d="M776.5,554.5c-14.1-3.9-28.4-4.9-43-3c0.8-0.8,1.8-1.3,3-1.5c10.3-0.7,20.7-0.7,31,0
	C770.6,551.5,773.6,553,776.5,554.5z"/>
<path class="st26" d="M776.5,554.5c20.3,7.9,27.1,22.2,20.5,43c-4.5,10.5-11.4,19.4-20.5,26.5c-13.5,8.5-26,18.3-37.5,29.5
	c-3.3,4.8-6.3,9.8-9,15c-1.5,11.7-7,20.7-16.5,27c-8.2,3.9-16.9,5.6-26,5c-6.9-0.6-13.5-2.1-20-4.5c-13.8-7-27.8-13.7-42-20
	c-5.7-1.2-11.4-2.5-17-4c-14-0.3-28-1-42-2c-18.7-4.4-26.9-16.2-24.5-35.5c3.8-9.8,10-18,18.5-24.5c8.3-5.5,17-10.5,26-15
	c36.4-16,74.1-28.7,113-38c11.2-2.5,22.6-4.3,34-5.5C748.1,549.6,762.4,550.6,776.5,554.5z"/>
<path class="st27" d="M652.5,581.5c2.3,0,4.7,0,7,0c0.7,5.1-1,9.3-5,12.5c-28.1,10-51.1,27-69,51c-7,5-14.3,5.7-22,2
	c-4.8-3.9-5.3-8.4-1.5-13.5c10.5-13.2,23.3-23.3,38.5-30.5C617.6,594.9,634.9,587.8,652.5,581.5z"/>
<path class="st28" d="M713.5,695.5c-1,1.6-1.1,3.2-0.5,5c11.5,21.5,29,35.6,52.5,42.5c5.3,0.7,10.7,0.7,16,0c9.3-3.5,18.3-7.2,27-11
	c-18.2,17-39.5,23.4-64,19c-13.1-4.9-24.1-12.7-33-23.5c-4.6,28.4-20.6,46.6-48,54.5c-10.7,0.8-21.3,0.7-32-0.5
	c10.9-1.2,21.5-3.4,32-6.5c18.3-12.3,28.8-29.5,31.5-51.5c0.5-7.3,0.7-14.7,0.5-22c-2.9,0.3-5.6,0-8-1
	C696.6,701.1,705.3,699.4,713.5,695.5z"/>
<path class="st29" d="M435.5,700.5c3.4,3.2,4.8,7.2,4,12c-0.9,18.3-1.3,36.6-1,55c-1.3-5.1-2-10.6-2-16.5c0.8-14.7,1.2-29.4,1-44
	c-2.1-1-2.4-2.3-1-4c-1.3-0.7-2.5-0.5-3.5,0.5c-0.3,4.7-0.7,9.3-1,14c-1.4,2.6-2.6,2.4-3.5-0.5c0.1-1.7,0.8-1.9,2-0.5
	c1-3.3,1.3-6.6,1-10c-4.2,0.4-7.2,2.5-9,6.5c0.3,0.3,0.7,0.7,1,1c-1.2,1-2.5,1.5-4,1.5c-0.9,0.8-1.2,1.8-1,3c-1,0-2,0-3,0
	C420.6,710.7,427.3,704.7,435.5,700.5z"/>
<path class="st30" d="M438.5,767.5c-1.4,5.5-3.4,10.8-6,16c-0.3,0-0.7,0-1,0c-1,0-1.7-0.5-2-1.5c-7-16.8-12.7-34-17-51.5
	c0-0.3,0-0.7,0-1c-0.1-4.1,0.9-7.8,3-11c1,0,2,0,3,0c-0.2-1.2,0.1-2.2,1-3c1.5,0,2.8-0.5,4-1.5c-0.3-0.3-0.7-0.7-1-1
	c1.8-4,4.8-6.1,9-6.5c0.3,3.4,0,6.7-1,10c-1.2-1.4-1.9-1.2-2,0.5c0.9,2.9,2.1,3.1,3.5,0.5c0.3-4.7,0.7-9.3,1-14c1-1,2.2-1.2,3.5-0.5
	c-1.4,1.7-1.1,3,1,4c0.2,14.6-0.2,29.3-1,44C436.5,756.9,437.2,762.4,438.5,767.5z"/>
<path class="st31" d="M412.5,729.5c0,0.3,0,0.7,0,1c0.2,7.3,0,14.7-0.5,22c-0.2,2.5-0.7,4.9-1.5,7c0.5-6,0.8-12,1-18
	C411.2,737.3,411.5,733.3,412.5,729.5z"/>
<path class="st30" d="M867.5,739.5c3.3,1.4,5.8,3.8,7.5,7c1.8,4.9,3.3,9.9,4.5,15c0,3,0.3,6,1,9c0,1,0,2,0,3
	c-4.7,21.3-13.7,40.7-27,58c3-26.9,4.3-53.9,4-81C860.9,746.8,864.2,743.1,867.5,739.5z"/>
<path class="st32" d="M411.5,741.5c-0.2,6-0.5,12-1,18c0.3,2.9,0,5.6-1,8c-0.2-8.3,0-16.7,0.5-25
	C410.4,741.9,410.9,741.6,411.5,741.5z"/>
<path class="st33" d="M435.5,700.5c0-0.7,0.3-1,1-1c1.2-0.2,2.2,0.1,3,1c7.4,11.9,15.6,23.2,24.5,34c55.4,60.9,124.6,91.3,207.5,91
	c70.5-0.4,131.4-24.4,182.5-72c0.2,0.5,0.3,1,0.5,1.5c-1.9,10.5-4.7,20.7-8.5,30.5c-4.5,10.2-9.5,20.2-15,30
	c-28,44.4-67.8,70.9-119.5,79.5c-37.3,3.1-73-2.9-107-18c-75.7-34.7-130.2-90.2-163.5-166.5c-0.3,0.9-0.8,1.6-1.5,2
	C440.3,707.7,438.9,703.7,435.5,700.5z"/>
<path class="st34" d="M412.5,730.5c4.3,17.5,10,34.7,17,51.5c0.3,1,1,1.5,2,1.5c-0.7,3.4,0.3,6.1,3,8c28.5,54.4,72.2,90.1,131,107
	c7.1,2.4,14.5,4.4,22,6c1.1,0.9,2.4,1.3,4,1c4.1,1.6,8.4,2.2,13,2c4.3,0.9,8.6,1.6,13,2c4.4,1.5,9.1,2.1,14,2c19.7,0,39.3,0,59,0
	c4.3-0.4,8.7-0.8,13-1c0,0.3,0,0.7,0,1c1.1,3.9,1.9,7.9,2.5,12c0.5,17.3,0.7,34.7,0.5,52c0,0.3,0,0.7,0,1c-3.6,2.6-7.6,4.2-12,5
	c0,0.3,0,0.7,0,1c-30.5,2.2-60.8,1.2-91-3c-2-1.4-4.3-2.1-7-2c-1.9,0.3-3.6,0-5-1c-6.2-2.7-12.9-4.4-20-5
	c-56.6-16.7-101.1-49.7-133.5-99c-9.3-15.2-17.4-30.9-24.5-47c0-0.3,0-0.7,0-1c-0.2-3.4-1.2-6.4-3-9c-1-1.4-1.3-3.1-1-5
	c-0.9-8.9-1.3-17.9-1-27c0.1-5.4,0.4-10.7,1-16c1-2.4,1.3-5.1,1-8c0.8-2.1,1.3-4.5,1.5-7C412.5,745.2,412.7,737.8,412.5,730.5z"/>
<path class="st35" d="M857.5,750.5c0.3,27.1-1,54.1-4,81c-0.7,0.7-1.3,1.3-2,2C854.8,805.8,856.8,778.1,857.5,750.5z"/>
<path class="st36" d="M431.5,783.5c0.3,0,0.7,0,1,0c-0.2,3,0.5,5.6,2,8C431.8,789.6,430.8,786.9,431.5,783.5z"/>
<path class="st37" d="M408.5,783.5c-0.3,9.1,0.1,18.1,1,27c-0.6-0.1-1.1-0.4-1.5-1C407.2,800.7,407.3,792,408.5,783.5z"/>
<path class="st38" d="M880.5,770.5c1,25.5,1.3,51.2,1,77c-0.2,1.7-0.8,3-2,4c1-26,1.3-52,1-78C880.5,772.5,880.5,771.5,880.5,770.5z
	"/>
<path class="st39" d="M879.5,761.5c1-0.1,1.8,0.2,2.5,1c0.8,28.5,0.7,56.8-0.5,85c0.3-25.8,0-51.5-1-77
	C879.8,767.5,879.5,764.5,879.5,761.5z"/>
<path class="st34" d="M880.5,773.5c0.3,26,0,52-1,78c-3.3,9.6-7,18.9-11,28c-20.4,35.3-49.1,61.8-86,79.5c-2.9,1.1-5.9,2-9,2.5
	c-2,1-4,2-6,3c-6,2-12,4-18,6c-2.4-0.2-4.4,0.4-6,2c-5.6,1.3-11.3,2.3-17,3c0.5-22.8-0.8-45.5-4-68c4.3-0.3,8.3-1.3,12-3
	c23.3-5.5,45.3-14,66-25.5c19.9-11.9,36.9-27.1,51-45.5c0.7-0.7,1.3-1.3,2-2C866.8,814.2,875.8,794.8,880.5,773.5z"/>
<path class="st40" d="M410.5,815.5c1.8,2.6,2.8,5.6,3,9C411.5,821.9,410.5,818.9,410.5,815.5z"/>
<path class="st41" d="M413.5,825.5c7.1,16.1,15.2,31.8,24.5,47c32.4,49.3,76.9,82.3,133.5,99c6.3,2.9,12.9,4.5,20,5
	c1.4,1,3.1,1.3,5,1c2,1.4,4.3,2.1,7,2c30.2,4.2,60.5,5.2,91,3c2.5,1.8,2.5,3.5,0,5c-1.4,3.8-2.4,7.8-3,12c1.6,0.9,3.3,1.8,5,2.5
	c0.8,1,1.2,2.2,1,3.5c6.2,0.2,8.9,3.6,8,10c-15.3,0.3-30.7,0-46-1c-0.8-1.6-2.2-2.3-4-2c0-1,0-2,0-3c-2,0-4,0-6,0
	c-1.8-1.1-3.8-1.8-6-2c-1.1-1.4-2.4-2.4-4-3c-3-1.4-6.4-2.1-10-2c-2.5,0-4.5,0.7-6,2c-3.9,0.9-6.6,3.2-8,7c-2.8,3.7-3.5,7.7-2,12
	c1,4.4,2.9,8.4,5.5,12c1.8,2.3,4,4,6.5,5c-12.2,8.3-16.5,19.6-13,34c0.9,5.5,3.6,9.8,8,13c2.2,2.4,5,3.4,8.5,3c4,0.3,7.5-0.7,10.5-3
	c5.6-2.8,11-6.2,16-10c35.7-0.2,71.3,0,107,0.5c0.7,2.6,2.4,3.7,5,3.5c8.8,9.1,19.5,12.3,32,9.5c3.6-1.8,6-4.6,7-8.5
	c1.3-1.3,2.1-3,2.5-5c1.9-9.8,0.2-18.8-5-27c-2.1-2.3-4.6-3.9-7.5-5c-0.9-0.8-1.2-1.8-1-3c8.8-4.9,12.8-12.3,12-22
	c0-5.1-2-9.3-6-12.5c-12.8-4.5-24.1-2-34,7.5c-16,1-32,1.3-48,1c-1-6,0.5-11,4.5-15c1.4-1.4,2.3-3.1,2.5-5c3.3-5.5,2.3-10.2-3-14
	c-0.3-3,0.7-5.3,3-7c5.7-0.7,11.4-1.7,17-3c2.4,0.2,4.4-0.4,6-2c6-2,12-4,18-6c2.8,0.5,4.8-0.5,6-3c3.1-0.5,6.1-1.4,9-2.5
	c36.9-17.7,65.6-44.2,86-79.5c5,7,9.5,14.3,13.5,22c13.6,28.2,26.2,56.9,38,86c3.5,9.9,6.6,19.9,9.5,30c18.7-12.6,39.3-20.5,62-23.5
	c25.5-2.8,43.3,7.4,53.5,30.5c4.7,12.6,6.9,25.6,6.5,39c-0.6,27.3-4.8,53.9-12.5,80c-7.3,21.8-14.9,43.5-23,65
	c-8.7,20.1-16.9,40.5-24.5,61c-7.6,14.9-14.5,30.3-20.5,46c-5.1,9.7-9.9,19.5-14.5,29.5c2.2,3.4,5.2,5.9,9,7.5
	c8.9,7.5,18.2,14.5,28,21c9.8,8.3,19.8,16.5,30,24.5c11.8,9.4,19.9,21.3,24.5,35.5c1.1,9.1-0.7,17.4-5.5,25c-1,0-1.7-0.5-2-1.5
	c-1.6-6.7-4.6-12.7-9-18c-3-1.2-5.7-2.8-8-5c-4.2-1.8-8.5-2.8-13-3c7.2,5.1,13.3,11.3,18.5,18.5c2.5,5.4,3.7,11.1,3.5,17
	c-2.4,12.2-9.7,19.7-22,22.5c-7.4,0.9-14.7,0.6-22-1c-11.6-4.1-22.2-9.8-32-17c-27.7-20.7-55.7-41.1-84-61c-3.2-3.2-6.3-6.3-9.5-9.5
	c8.5,15.4,7,29.9-4.5,43.5c-3.7,3.5-8.1,6-13,7.5c-3.4-7.2-6.9-14.6-10.5-22c-6.8-5.3-13.9-10-21.5-14c-1,0.5-1.2,1.2-0.5,2
	c13.1,10.8,18.6,24.8,16.5,42c-2.7,11.6-10.1,18.4-22,20.5c-6.3,0.7-12.7,0.7-19,0c-2.9-0.9-5.5-2.1-8-3.5c-1.6-5.8-2.4-11.8-2.5-18
	c-2.3-13.4-8.8-24.2-19.5-32.5c-0.8-0.7-1.5-0.5-2,0.5c9,11.5,12.8,24.5,11.5,39c-0.7,0.5-1.2,1.2-1.5,2c-2.2,3.1-5.2,5.3-9,6.5
	c-12.4,2.7-22.2-1.2-29.5-11.5c-7.2-14.1-10.4-29.1-9.5-45c-3.7-61.3-6.5-122.6-8.5-184c-2.8-28.3-4.3-56.6-4.5-85
	c-10.4,37.2-16.2,75.2-17.5,114c-2.9,52.1-1.7,104.1,3.5,156c-8.3,0-16.7,0-25,0c-9.7,0-19.3,0-29,0c6.1-83.3-0.4-165.7-19.5-247
	c-2.7-8-5.3-16-8-24c0.4,90.7,0.9,181.3,1.5,272c2.2,16.7-0.6,32.3-8.5,47c-8.1,10.7-18.6,14.2-31.5,10.5c-2.5-1.7-4.8-3.5-7-5.5
	c-2.7-14.7,0.3-28.2,9-40.5c-1.4-0.3-2.7,0-4,1c-8.6,9.2-13.8,20-15.5,32.5c-0.3,5.7-0.8,11.4-1.5,17c-13.2,7.6-26.6,7.8-40,0.5
	c-4.7-3.6-8.1-8.1-10-13.5c-1.5-11.2,0.7-21.5,6.5-31c3.7-4.9,7.5-9.8,11.5-14.5c-12.1,2.7-20.6,9.9-25.5,21.5
	c-2,5.2-3.5,10.6-4.5,16c-1,0-2,0-3,0c-16.4-4.5-25-15.3-26-32.5c0.2-2.2,0.3-4.3,0.5-6.5c1.2-3.8,2.5-7.5,4-11
	c-31.6,22.9-63.4,45.4-95.5,67.5c-12.6,8.8-26.6,14-42,15.5c-10.2-0.3-18.7-4.3-25.5-12c-2.3-3.7-3.5-7.7-3.5-12
	c-0.1-7.2,1.7-13.8,5.5-20c5-5.5,10.5-10.5,16.5-15c-8,0.3-15.4,3-22,8c-4.2,6-7.5,12.3-10,19c-6.9-10.7-7.8-22.1-2.5-34
	c6-11.3,14.1-20.8,24.5-28.5c13.9-10.4,27.5-20.9,41-31.5c3.6-2.5,7.3-5,11-7.5c1.3-0.5,2.6-0.7,4-0.5c-0.2-1.2,0.1-2.2,1-3
	c4.6-3.5,9.6-6.1,15-8c0.2-1.4,0-2.7-0.5-4c-7-7.9-13-16.6-18-26c-12.3-15.4-24.2-31.1-35.5-47c8.2-11,16.3-22,24.5-33
	c10.1-14.2,17.1-29.9,21-47c4-19.8-1.2-36.7-15.5-50.5c-7.1-5.5-15.1-8.9-24-10c-11.4-1.9-22.7-4.2-34-7
	c-11.9-5.9-19.4-15.4-22.5-28.5c-0.8-14.2-2.4-28.2-5-42c-2.7-6.9-6.5-13.1-11.5-18.5c-2.3-0.3-4.7-0.2-7,0.5c15-7.6,31-10.1,48-7.5
	c19.5,1.2,37.8,6.4,55,15.5c12.4-53.9,24.9-107.9,37.5-162c5.1-16.9,10.7-33.5,17-50C413.5,829.5,413.7,827.5,413.5,825.5z"/>
<path class="st42" d="M565.5,898.5c5.2,1.3,10.6,2.1,16,2.5c2.1,1.1,4.1,2.2,6,3.5C580,902.9,572.6,900.9,565.5,898.5z"/>
<path class="st43" d="M591.5,905.5c4.6-0.2,8.9,0.4,13,2C599.9,907.7,595.6,907.1,591.5,905.5z"/>
<path class="st44" d="M734.5,904.5c-3.7,1.7-7.7,2.7-12,3c-0.7,0-1-0.3-1-1C725.8,905.6,730.1,905,734.5,904.5z"/>
<path class="st45" d="M703.5,905.5c-3.2,0.8-6.5,1.6-10,2.5c-0.6,0.4-0.9,0.9-1,1.5c-0.7,0.3-1.3,0.7-2,1c0.4-1.9,1.4-3.4,3-4.5
	C696.8,905.5,700.2,905.3,703.5,905.5z"/>
<path class="st46" d="M692.5,909.5c3.9-0.3,7.5,0,11,1c-4.3,0.2-8.7,0.6-13,1c0-0.3,0-0.7,0-1C691.2,910.2,691.8,909.8,692.5,909.5z
	"/>
<path class="st47" d="M617.5,909.5c5-0.4,9.6,0.3,14,2C626.6,911.6,621.9,911,617.5,909.5z"/>
<path class="st48" d="M703.5,911.5c2.3,2.8,3.5,6.2,3.5,10c0.8,18.2,0.7,36.2-0.5,54c0.2-17.3,0-34.7-0.5-52
	C705.4,919.4,704.6,915.4,703.5,911.5z"/>
<path class="st49" d="M773.5,961.5c-1.2,2.5-3.2,3.5-6,3C769.5,963.5,771.5,962.5,773.5,961.5z"/>
<path class="st50" d="M749.5,970.5c-1.6,1.6-3.6,2.2-6,2C745.1,970.9,747.1,970.3,749.5,970.5z"/>
<path class="st51" d="M571.5,971.5c7.1,0.6,13.8,2.3,20,5C584.4,976,577.8,974.4,571.5,971.5z"/>
<path class="st52" d="M596.5,977.5c2.7-0.1,5,0.6,7,2C600.8,979.6,598.5,978.9,596.5,977.5z"/>
<path class="st53" d="M706.5,976.5c-0.6,1.7-1.6,3.2-3,4.5c-3,0.5-6,0.7-9,0.5C698.9,980.7,702.9,979.1,706.5,976.5z"/>
<path class="st54" d="M723.5,982.5c5.3,3.8,6.3,8.5,3,14c0.2-3.3,0-6.7-0.5-10C724.5,985.5,723.7,984.2,723.5,982.5z"/>
<path class="st55" d="M639.5,1004.5c-5.3,0-10.7,0-16,0c1.5-1.3,3.5-2,6-2C633.1,1002.4,636.5,1003.1,639.5,1004.5z"/>
<path class="st33" d="M896.5,989.5c1.7,2,2.8,4.3,3.5,7c4.5,23.9,4.5,47.9,0,72c-21.5,79.9-36.5,160.9-45,243
	c-1.9,26.3-2.9,52.6-3,79c-11.3-8.1-23.8-13.8-37.5-17c0.8-10.1,2.3-20.1,4.5-30c15-77.9,33-155.3,54-232c6.3-23.9,12.3-47.9,18-72
	C893.3,1022.9,895.2,1006.2,896.5,989.5z"/>
<path class="st56" d="M716.5,994.5c-2.8-0.4-3.4,0.4-2,2.5c-1.8,5.3-2.5,10.8-2,16.5c-1.3,0-2.7,0-4,0c0.3,2.5-0.7,4.1-3,5
	c-15.5-0.6-30.8-1.3-46-2c15.7,0,31.3,0,47,0c0.1-4-0.2-8-1-12c-2.2,0.4-3.9-0.3-5-2c2.3,1.3,4.1,0.6,5.5-2c0.7-1.3,0.7-2.7,0-4
	c-1.5,1.4-2.3,1-2.5-1c1.6-0.7,3-1.9,4-3.5C711,991.3,714,992.2,716.5,994.5z"/>
<path class="st57" d="M707.5,995.5c1.3,0,2.7,0,4,0c0.3,5.7,0,11.4-1,17c-0.6-0.2-1.1-0.5-1.5-1
	C708.2,1006.2,707.7,1000.9,707.5,995.5z"/>
<path class="st58" d="M623.5,1004.5c5.3,0,10.7,0,16,0c1.6,0.6,2.9,1.6,4,3c-0.4-0.1-0.8,0.1-1,0.5c1.5,1.9,2.5,4,3,6.5
	c-0.7,0.3-1.3,0.7-2,1c-3.5-0.9-7-1.5-10.5-2c-3.7,1.4-7.6,2.8-11.5,4c-1.7-0.5-3.4-1.2-5-2c1-1.6,1.2-3.3,0.5-5
	c-0.4,0.6-0.9,0.9-1.5,1C616.9,1007.7,619.6,1005.4,623.5,1004.5z"/>
<path class="st59" d="M628.5,1006.5c4.9-0.5,9.4,0.5,13.5,3c0.5,1,0.6,2,0.5,3c-7.3-0.7-14.3,0.3-21,3c-3.5-0.8-3.8-2.3-1-4.5
	c0.9-0.5,1.9-0.7,3-0.5c0-1,0-2,0-3C625.4,1007.8,627.1,1007.5,628.5,1006.5z"/>
<path class="st60" d="M694.5,987.5c-0.2,3.3,0,6.7,0.5,10c1.1,2.6,2.9,4.3,5.5,5c1.1,1.7,2.8,2.4,5,2c0.8,4,1.1,8,1,12
	c-15.7,0-31.3,0-47,0c-3.7-1.8-7.1-4.2-10-7c2,0,4,0,6,0c0,1,0,2,0,3c1.8-0.3,3.2,0.4,4,2c15.3,1,30.7,1.3,46,1
	c0.9-6.4-1.8-9.8-8-10c0.2-1.3-0.2-2.5-1-3.5c-1.7-0.7-3.4-1.6-5-2.5C692.1,995.3,693.1,991.3,694.5,987.5z"/>
<path class="st61" d="M721.5,906.5c0,0.7,0.3,1,1,1c3.2,22.5,4.5,45.2,4,68c-2.3,1.7-3.3,4-3,7c0.2,1.7,1,3,2.5,4
	c0.5,3.3,0.7,6.7,0.5,10c-0.2,1.9-1.1,3.6-2.5,5c-4,4-5.5,9-4.5,15c16,0.3,32,0,48-1c9.9-9.5,21.2-12,34-7.5c4,3.2,6,7.4,6,12.5
	c-1.9,9.1-7.1,15.8-15.5,20c-0.5,4.1,0.7,4.7,3.5,2c-0.2,1.2,0.1,2.2,1,3c2.9,1.1,5.4,2.7,7.5,5c5.2,8.2,6.9,17.2,5,27
	c-0.4,2-1.2,3.7-2.5,5c-10,7.8-20.3,8-31,0.5c-4-3.3-8-6.7-12-10c-36.3-0.7-72.7-0.7-109,0c-7,7.7-15.7,11.8-26,12.5
	c-2.5,0-4.8-0.5-7-1.5c-3.2-3.1-6.2-6.2-9-9.5c-3.5-14.4,0.8-25.7,13-34c2.7,0.4,3.8-0.6,3.5-3c-6.7-3.2-11.8-7.8-15.5-14
	c-1.5-4.3-0.8-8.3,2-12c0.6-0.1,1.1-0.4,1.5-1c0.7,1.7,0.5,3.4-0.5,5c1.6,0.8,3.3,1.5,5,2c3.9-1.2,7.8-2.6,11.5-4
	c3.5,0.5,7,1.1,10.5,2c0.7-0.3,1.3-0.7,2-1c-0.5-2.5-1.5-4.6-3-6.5c0.2-0.4,0.6-0.6,1-0.5c2.2,0.2,4.2,0.9,6,2c2.9,2.8,6.3,5.2,10,7
	c15.2,0.7,30.5,1.4,46,2c2.3-0.9,3.3-2.5,3-5c1.3,0,2.7,0,4,0c-0.5-5.7,0.2-11.2,2-16.5c-1.4-2.1-0.8-2.9,2-2.5
	c2.3,1.3,3.6,0.4,4-2.5c-2.1-6.7-6.8-9.4-14-8c-3.6,3.2-4.6,7-3,11.5c0.2,2,1,2.4,2.5,1c0.7,1.3,0.7,2.7,0,4c-1.4,2.6-3.2,3.3-5.5,2
	c-2.6-0.8-4.4-2.4-5.5-5c-0.5-3.3-0.7-6.7-0.5-10c2.5-1.5,2.5-3.2,0-5c0-0.3,0-0.7,0-1c3,0.2,6,0,9-0.5c1.4-1.3,2.4-2.8,3-4.5
	c0-0.3,0-0.7,0-1c1.2-17.8,1.3-35.8,0.5-54c0-3.8-1.2-7.2-3.5-10c0-0.3,0-0.7,0-1c-3.5-1-7.1-1.3-11-1c0.1-0.6,0.4-1.1,1-1.5
	c3.5-0.9,6.8-1.7,10-2.5c3.8-0.1,7.7-0.4,11.5-1C717.3,904.8,719.5,905.5,721.5,906.5z"/>
<path class="st62" d="M783.5,1008.5c4.3-0.2,8.7,0,13,0.5c2.6,1.3,3.6,3.5,3,6.5c-5.4-0.3-10.7,0-16,1c-1.8,2.5-4.1,3.3-7,2.5
	c-1.1-1.4-1.2-2.9-0.5-4.5C778.7,1012.6,781.2,1010.6,783.5,1008.5z"/>
<path class="st63" d="M716.5,994.5c-2.5-2.3-5.5-3.2-9-2.5c-1,1.6-2.4,2.8-4,3.5c-1.6-4.5-0.6-8.3,3-11.5c7.2-1.4,11.9,1.3,14,8
	C720.1,994.9,718.8,995.8,716.5,994.5z"/>
<path class="st64" d="M706.5,908.5c2,0,4,0,6,0c1.1,6.3,1.1,12.7,0,19c-1.5-3.8-2.3-7.8-2.5-12C708,913.6,706.8,911.3,706.5,908.5z"
	/>
<path class="st33" d="M411.5,999.5c3.2,27,8.7,53.7,16.5,80c26.2,77.1,49.6,155.1,70,234c5.8,22.2,11,44.5,15.5,67
	c-2.8-0.1-5.4,0.4-8,1.5c-8.4,3.7-16.4,8.2-24,13.5c-0.6-0.2-1.1-0.5-1.5-1c-1.3-11.9-3.6-23.6-7-35c-5.5-43.2-12.1-86.2-20-129
	c-12-52.9-26-105.2-42-157c-3.3-19.2-4.3-38.5-3-58C408.2,1009.9,409.4,1004.5,411.5,999.5z"/>
<path class="st65" d="M613.5,1023.5c3.7,6.2,8.8,10.8,15.5,14c0.3,2.4-0.8,3.4-3.5,3c-2.5-1-4.7-2.7-6.5-5
	C616.4,1031.9,614.5,1027.9,613.5,1023.5z"/>
<path class="st66" d="M807.5,1020.5c0.8,9.7-3.2,17.1-12,22c-2.8,2.7-4,2.1-3.5-2C800.4,1036.3,805.6,1029.6,807.5,1020.5z"/>
<path class="st16" d="M329.5,1271.5c-4.9-4.5-9.4-9.5-13.5-15c-0.3-1.3-0.7-2.7-1-4c-6.6-6.9-11.9-14.6-16-23
	c-5.3-6-10.2-12.4-14.5-19c-9.2-15.7-18.7-31.4-28.5-47c-5-13.1-10.4-26.1-16-39c-1.8-10.1-3.8-20.1-6-30c-1.9-14.6-0.1-28.6,5.5-42
	c3.9-4.1,7.6-8.4,11-13c2.3-0.6,4-2,5-4c2.3-0.7,4.7-0.8,7-0.5c5,5.4,8.8,11.6,11.5,18.5c2.6,13.8,4.2,27.8,5,42
	c3.1,13.1,10.6,22.6,22.5,28.5c11.3,2.8,22.6,5.1,34,7c8.9,1.1,16.9,4.5,24,10c14.3,13.8,19.5,30.7,15.5,50.5
	c-3.9,17.1-10.9,32.8-21,47C345.8,1249.5,337.7,1260.5,329.5,1271.5z"/>
<path class="st67" d="M250.5,1039.5c-3.4,4.6-7.1,8.9-11,13c1.2-3.7,2.5-7.4,4-11C246.1,1041.6,248.4,1040.9,250.5,1039.5z"/>
<path class="st59" d="M628.5,1046.5c2.8-0.1,5.4,0.4,8,1.5c2.1,4.3,0.7,7-4,8c-1.3,1.4-2.5,2.9-3.5,4.5c-0.3,5.7-0.7,11.3-1,17
	c-1.5,1.8-3.3,2.3-5.5,1.5c-6.6-4.6-8.7-10.7-6.5-18.5c1.6-3.6,3.6-6.9,6-10C624,1048.8,626.2,1047.4,628.5,1046.5z"/>
<path class="st68" d="M806.5,1082.5c-1,3.9-3.4,6.7-7,8.5c-12.5,2.8-23.2-0.4-32-9.5c-1.5-1.3-2.8-2.8-4-4.5
	c-36.2-0.8-72.2-0.7-108,0.5c-5,3.8-10.4,7.2-16,10c-6.3,1.3-12.7,1.3-19,0c-4.4-3.2-7.1-7.5-8-13c2.8,3.3,5.8,6.4,9,9.5
	c2.2,1,4.5,1.5,7,1.5c10.3-0.7,19-4.8,26-12.5c36.3-0.7,72.7-0.7,109,0c4,3.3,8,6.7,12,10C786.2,1090.5,796.5,1090.3,806.5,1082.5z"
	/>
<path class="st69" d="M655.5,1077.5c35.8-1.2,71.8-1.3,108-0.5c1.2,1.7,2.5,3.2,4,4.5c-2.6,0.2-4.3-0.9-5-3.5
	C726.8,1077.5,691.2,1077.3,655.5,1077.5z"/>
<path class="st70" d="M620.5,1087.5c6.3,1.3,12.7,1.3,19,0c-3,2.3-6.5,3.3-10.5,3C625.5,1090.9,622.7,1089.9,620.5,1087.5z"/>
<path class="st71" d="M965.5,1352.5c-3.8-1.6-6.8-4.1-9-7.5c4.6-10,9.4-19.8,14.5-29.5c6-15.7,12.9-31.1,20.5-46
	c1.4,1.1,3.1,1.3,5,0.5c38.4-11.1,73.1-29.1,104-54c2.3-1,4.7-2,7-3c20-16.5,39.9-33.3,59.5-50.5c6.9-7.5,13.6-15.2,20-23
	c3.4-11.6,9.3-21.6,17.5-30c13.8-6.4,19-2.1,15.5,13c-1.6,4.5-3.4,8.8-5.5,13c-3.8,4.5-6.8,9.5-9,15c-0.8,0.9-1.8,1.2-3,1
	c-2.2,2.4-3.4,5.4-3.5,9c-3,5.6-6.3,10.9-10,16c-10,12.7-20,25.3-30,38c-1.4,0.9-2.9,1.2-4.5,1c0.2,1.4,0,2.7-0.5,4
	c-16.5,18-33.6,35-51.5,51c-4.8,3.6-9.5,7.5-14,11.5c-4.2,1.9-8.2,4.2-12,7c-2.4,1.8-4,4-5,6.5c-1.1-0.2-2.1,0-3,0.5
	c-25.7,17.9-52.7,33.6-81,47c-3.9,1.4-7.9,2.6-12,3.5C972,1348.3,968.6,1350.3,965.5,1352.5z"/>
<path class="st33" d="M718.5,1417.5c-9,0.7-18,1.1-27,1c-5.2-51.9-6.4-103.9-3.5-156c1.3-38.8,7.1-76.8,17.5-114
	c0.2,28.4,1.7,56.8,4.5,85C712,1294.9,714.8,1356.2,718.5,1417.5z"/>
<path class="st28" d="M666.5,1418.5c-18.2,1-36.5,1.3-55,1c-0.6-90.7-1.1-181.3-1.5-272c2.7,8,5.3,16,8,24
	c19.1,81.3,25.6,163.7,19.5,247C647.2,1418.5,656.8,1418.5,666.5,1418.5z"/>
<path class="st72" d="M352.5,1367.5c-13.5,10.6-27.1,21.1-41,31.5c-10.4,7.7-18.5,17.2-24.5,28.5c-5.3,11.9-4.4,23.3,2.5,34
	c1.3,5.3,4.6,8,10,8c0,4.3,1.2,8.3,3.5,12c6.8,7.7,15.3,11.7,25.5,12c15.4-1.5,29.4-6.7,42-15.5c32.1-22.1,63.9-44.6,95.5-67.5
	c-1.5,3.5-2.8,7.2-4,11c-0.2,2.2-0.3,4.3-0.5,6.5c1,17.2,9.6,28,26,32.5c0.8,0.8,1.8,1.3,3,1.5c3.7,0.5,7.3,0.7,11,0.5
	c-0.3,2.2,0,4.2,1,6c1.9,5.4,5.3,9.9,10,13.5c13.4,7.3,26.8,7.1,40-0.5c4.8-2.4,8.8-5.7,12-10c2.2,2,4.5,3.8,7,5.5
	c12.9,3.7,23.4,0.2,31.5-10.5c7.9-14.7,10.7-30.3,8.5-47c18.5,0.3,36.8,0,55-1c8.3,0,16.7,0,25,0c9,0.1,18-0.3,27-1
	c-0.9,15.9,2.3,30.9,9.5,45c7.3,10.3,17.1,14.2,29.5,11.5c3.8-1.2,6.8-3.4,9-6.5c4.3,3.5,9,6.5,14,9c2.5,1.4,5.1,2.6,8,3.5
	c6.3,0.7,12.7,0.7,19,0c11.9-2.1,19.3-8.9,22-20.5c1-1.8,1.3-3.8,1-6c4,0.2,8,0,12-0.5c1.2-0.2,2.2-0.7,3-1.5c4.9-1.5,9.3-4,13-7.5
	c11.5-13.6,13-28.1,4.5-43.5c3.2,3.2,6.3,6.3,9.5,9.5c28.3,19.9,56.3,40.3,84,61c9.8,7.2,20.4,12.9,32,17c7.3,1.6,14.6,1.9,22,1
	c12.3-2.8,19.6-10.3,22-22.5c5.4-0.1,8.7-2.7,10-8c4.8-7.6,6.6-15.9,5.5-25c-4.6-14.2-12.7-26.1-24.5-35.5
	c-10.2-8-20.2-16.2-30-24.5c0.6-0.6,1.4-1,2.5-1c12.8,2.2,25.6,3.7,38.5,4.5c21.5,4,43.2,7,65,9c27.3,6,54.7,12,82,18
	c11.2,4.5,22.6,8.9,34,13c8.4,4.2,16,9.3,23,15.5c3.8,6.6,3.9,13.3,0.5,20c-10,8.8-21.2,15.6-33.5,20.5c-32.7,10.8-66,19.2-100,25
	c-42.9,6.4-85.9,12.1-129,17c-219,19-438,19.3-657,1c-20.6-3.3-41.2-5.6-62-7c-46.5-5.8-92.5-14.1-138-25c-9.7-3-19.3-6-29-9
	c-9.4-3.6-18.4-7.9-27-13c-5.6-3.6-9.8-8.5-12.5-14.5c-0.9-4.9-0.3-9.6,2-14c11.1-11.3,24.2-19.1,39.5-23.5
	c32.7-10.3,66-18.3,100-24C245.6,1378,298.9,1371.9,352.5,1367.5z"/>
<path class="st73" d="M845.5,1451.5c-0.8,0.8-1.8,1.3-3,1.5c-4,0.5-8,0.7-12,0.5c0.3,2.2,0,4.2-1,6c2.1-17.2-3.4-31.2-16.5-42
	c-0.7-0.8-0.5-1.5,0.5-2c7.6,4,14.7,8.7,21.5,14C838.6,1436.9,842.1,1444.3,845.5,1451.5z"/>
<path class="st74" d="M502.5,1468.5c-1-1.8-1.3-3.8-1-6c-3.7,0.2-7.3,0-11-0.5c-1.2-0.2-2.2-0.7-3-1.5c1,0,2,0,3,0
	c1-5.4,2.5-10.8,4.5-16c4.9-11.6,13.4-18.8,25.5-21.5c-4,4.7-7.8,9.6-11.5,14.5C503.2,1447,501,1457.3,502.5,1468.5z"/>
<path class="st75" d="M780.5,1476.5c-5-2.5-9.7-5.5-14-9c0.3-0.8,0.8-1.5,1.5-2c1.3-14.5-2.5-27.5-11.5-39c0.5-1,1.2-1.2,2-0.5
	c10.7,8.3,17.2,19.1,19.5,32.5C778.1,1464.7,778.9,1470.7,780.5,1476.5z"/>
<path class="st73" d="M1042.5,1458.5c-1.3,5.3-4.6,7.9-10,8c0.2-5.9-1-11.6-3.5-17c-5.2-7.2-11.3-13.4-18.5-18.5
	c4.5,0.2,8.8,1.2,13,3c2.3,2.2,5,3.8,8,5c4.4,5.3,7.4,11.3,9,18C1040.8,1458,1041.5,1458.5,1042.5,1458.5z"/>
<path class="st76" d="M299.5,1469.5c-5.4,0-8.7-2.7-10-8c2.5-6.7,5.8-13,10-19c6.6-5,14-7.7,22-8c-6,4.5-11.5,9.5-16.5,15
	C301.2,1455.7,299.4,1462.3,299.5,1469.5z"/>
<path class="st77" d="M564.5,1471.5c-3.2,4.3-7.2,7.6-12,10c0.7-5.6,1.2-11.3,1.5-17c1.7-12.5,6.9-23.3,15.5-32.5c1.3-1,2.6-1.3,4-1
	C564.8,1443.3,561.8,1456.8,564.5,1471.5z"/>
<path class="st0" d="M854.5,754.5c-1.9,10.5-4.7,20.7-8.5,30.5c-4.5,10.2-9.5,20.2-15,30c-28,44.4-67.8,70.9-119.5,79.5
	c-37.3,3.1-73-2.9-107-18C528.8,841.8,474.3,786.3,441,710c-0.3,0.9-0.8,1.6-1.5,2c-0.9,18.3-1.3,36.6-1,55c-1.4,5.5-3.4,10.8-6,16
	c-0.2,3,0.5,5.6,2,8c28.5,54.4,72.2,90.1,131,107c5.2,1.3,10.6,2.1,16,2.5c2.1,1.1,4.1,2.2,6,3.5c1.1,0.9,2.4,1.3,4,1
	c4.6-0.2,8.9,0.4,13,2c4.3,0.9,8.6,1.6,13,2c5-0.4,9.6,0.3,14,2c19.7,0,39.3,0,59,0c0-0.3,0-0.7,0-1c0.4-1.9,1.4-3.4,3-4.5
	c3.3-0.5,6.7-0.7,10-0.5c3.8-0.1,7.7-0.4,11.5-1c2.3,0.3,4.5,1,6.5,2c4.3-0.9,8.6-1.5,13-2c23.3-5.5,45.3-14,66-25.5
	c19.9-11.9,36.9-27.1,51-45.5c3.3-27.6,5.3-55.2,6-82.8c-0.9,0.8-2,1.9-3.4,3.1C854.3,753.7,854.4,754.1,854.5,754.5z"/>
<path d="M1319.6,787.7l0.2,0.3c0.8-0.8,1.6-1.4,2.3-2.1c0-0.1-0.1-0.2-0.1-0.4C1321.2,786.2,1320.4,787,1319.6,787.7z"/>
<path d="M1329,778.6C1329,778.6,1329,778.7,1329,778.6c-1.2,1.4-2.4,2.6-3.5,3.9c0,0.1,0,0.2,0,0.2c3.1-2.9,3.9-3.7,3.9-3.8
	L1329,778.6C1329,778.6,1329,778.6,1329,778.6L1329,778.6z"/>
<path d="M1319.2,787.2l0.4,0.5c0.8-0.7,1.6-1.4,2.4-2.2c0,0.1,0.1,0.2,0.1,0.4c1.4-1.2,2.5-2.3,3.4-3.1c0-0.1,0-0.2,0-0.2
	c1.2-1.3,2.3-2.5,3.4-3.8c-0.4,0.4-2.4,2.5-9.4,8.8l9.5-8.9c0,0,0,0,0,0l-0.4-0.3C1328.6,778.3,1327.1,780,1319.2,787.2z"/>
<path d="M1329,778.7C1329,778.7,1329,778.7,1329,778.7C1329,778.7,1329,778.6,1329,778.7L1329,778.7z"/>
<path d="M1319.5,787.6c7-6.4,9-8.4,9.4-8.8c0,0,0,0,0.1-0.1L1319.5,787.6z"/>
</svg>
