<svg id="Layer_1" data-name="Layer 1" xmlns="http://www.w3.org/2000/svg" viewBox="0 0 518.13 264.99"><defs><style>.cls-1{fill:#fdf8e8;}.cls-2{fill:none;}.cls-3{fill:#dbd7cd;}.cls-4{fill:#dad7cd;}.cls-5{fill:#f0ebdf;}.cls-6{fill:#be946d;}.cls-7{fill:#ef5f51;}.cls-8{fill:#252223;}.cls-9{fill:#e9b58c;}.cls-10{fill:#be956f;}.cls-11{fill:#302624;}.cls-12{fill:#bebcb4;}.cls-13{fill:#f78676;}.cls-14{fill:#615b58;}.cls-15{fill:#fbf9f5;}</style></defs><title>dog_side_running</title><path class="cls-1" d="M408.1,373.9c.6.2,1.2.2,1.1,1.1Z" transform="translate(-405.35 -233)"/><path class="cls-2" d="M616,486.8c-2.5,1.3-3.6,3.8-4,6.9-3.2-.1-4.8-1.7-5.5-4.1a5.4,5.4,0,0,0,5.5,4.1C612.4,490.6,613.5,488.1,616,486.8Z" transform="translate(-405.35 -233)"/><path class="cls-2" d="M612.6,494.4a6.11,6.11,0,0,0,2.4.7,5.39,5.39,0,0,0,.7,1.3c-.3-.4-.4-.9-.7-1.3A5.65,5.65,0,0,1,612.6,494.4Z" transform="translate(-405.35 -233)"/><path class="cls-2" d="M480.5,402.9c1.3-1.1,2.5-2.3,3.7-3.5C483,400.6,481.8,401.7,480.5,402.9Z" transform="translate(-405.35 -233)"/><path class="cls-2" d="M472.1,409.1c.8-.5,1.6-1,2.4-1.6C473.7,408.1,472.9,408.6,472.1,409.1Z" transform="translate(-405.35 -233)"/><path class="cls-2" d="M666,438a5.49,5.49,0,0,0-1.7.5,10.93,10.93,0,0,1,1.7-.5Z" transform="translate(-405.35 -233)"/><path class="cls-2" d="M668.5,434.9a5.1,5.1,0,0,0-1.4,2.6h0A5.46,5.46,0,0,1,668.5,434.9Z" transform="translate(-405.35 -233)"/><path class="cls-2" d="M500,378.1Z" transform="translate(-405.35 -233)"/><path class="cls-2" d="M606.1,479.9a32.49,32.49,0,0,1,4-5c5.2-4.6,11.5-7.1,18.1-8.8,4.8-1.3,7.2-4.2,6.6-9.3-6.7,2.8-13.2,6-20.2,8.2-13.4,4.2-26.9,8.1-39.1,15.4-1.4,0-2.9.1-4.3.1,1.4,0,2.9-.1,4.3-.1C585.8,481.7,595.9,479.1,606.1,479.9Z" transform="translate(-405.35 -233)"/><path class="cls-3" d="M858.4,389.6l1.5.9c9.1-6.2,18.3-12.3,26.3-20.1,1.7-1.6,3.3-1.5,5.4-.4,6.2,3.2,12.6,6.1,19.8,6,8.1,0,13.8-6.9,11.6-14-4.3,1.2-8.5,2-12.8-.4,3.8,0,7.1-2.1,10.7-2.6,0-2.1.5-4.2-1.1-6.2-5.3-6.3-11-11.9-19.8-13.1-6.6-.9-12.7,1.4-19.1,2-13.1,1.3-26,2.5-39.1-.4-4.8-1-9.6-3-14.7-2.5a78.65,78.65,0,0,0,3.4,14.7,81.79,81.79,0,0,0,3.9,9.2C839.8,374.1,846.8,383.8,858.4,389.6Z" transform="translate(-405.35 -233)"/><path class="cls-4" d="M705,440Z" transform="translate(-405.35 -233)"/><path class="cls-4" d="M672.5,438a7.58,7.58,0,0,1-3-.5h-.7V437l-.2.4-.8-.4a5.49,5.49,0,0,0-1.7.5,4.19,4.19,0,0,0-1.4.9,197.86,197.86,0,0,1-28,17.4c.6,5.1-1.8,8.1-6.6,9.3-6.6,1.7-12.9,4.2-18.1,8.8a32.49,32.49,0,0,0-4,5h0c0,1.8-.2,3.7-.2,5.5a10.87,10.87,0,0,0,.1,1.8,5.85,5.85,0,0,0,.2,1.3c.1.4.2.7.3,1.1a5.4,5.4,0,0,0,5.5,4.1c.4-3.1,1.6-5.6,4-6.9a8.21,8.21,0,0,1,3-.8c.1-.1.1-.2.2-.3-.1.1-.1.2-.2.4h0a20.58,20.58,0,0,0-3,5.4,24.18,24.18,0,0,0-1,3.6,5.39,5.39,0,0,0,.7,1.3l.3.3c7.4,4.9,25.9,1.5,30.5-6.1,4-6.6,10.3-9.4,16.5-12.7,6.2-5,12.4-9.9,18.5-14.9,8.3-6.8,15.1-15.2,23-22.4l-2.9-.2C693.1,440.1,682.8,438.9,672.5,438Z" transform="translate(-405.35 -233)"/><path class="cls-5" d="M764.5,404.1c3,7.6,3,7.7-4.9,10.5A207.92,207.92,0,0,1,693.7,426c-4.1.1-5.3-1.1-4.3-5.3,1.7-6.9-.6-12.2-5.8-15.6-1.2-.8-2.4-2.3-4-1.3-1.2.8-.7,2.5-.7,3.7.6,9.3-1.5,17.8-8,24.9-.8.8-1.7,1.6-2.5,2.4a5.1,5.1,0,0,0-1.4,2.6h0l37.9,2v.5h0c4.2,0,8.3-.5,12.4-.9,21.1-1.9,41-7.8,60.3-16.2,6.3-2.8,12.9-5.3,18.3-10-14.1-5.3-26.7-12.3-33.4-27.1C762,392.4,762.3,398.4,764.5,404.1Z" transform="translate(-405.35 -233)"/><path class="cls-5" d="M705,440Z" transform="translate(-405.35 -233)"/><path class="cls-6" d="M556.5,286.8c3.5,6.8,8.5,12.3,15.7,15.3,7.5,3.1,14.6,1.1,18.9-5l4.2-9.6.5.2h0a15.83,15.83,0,0,1,1-4.7c3.4-9.1,7.8-17.9,8.1-27.9a111,111,0,0,0-33,3.4,38,38,0,0,1-5.9.6c-2.9,1.6-3.4,5.4-6.1,7.2-1,1.9-1.9,3.8-2.9,5.7C554.6,276.8,554,281.9,556.5,286.8Z" transform="translate(-405.35 -233)"/><path class="cls-7" d="M500,378.1h0c-1.3,4.4-5.3,7.5-7.1,11.8-.3,4.1-1.8,7.8-5.1,10.1a18.63,18.63,0,0,0-7.8,10.9l1.8,6.6c4.2,10.3,11.2,18.4,19.9,25.2,5.9,4.6,12.4,7.4,20.1,6.3,6.4-.8,10.7-8.1,8.6-14.2-1.8-5.2-6.2-7.9-9.6-11.7-3.8-4.2-8.9-7.4-11.1-13C501.9,400.9,499.5,390,500,378.1Zm14.4,45.3c2.1,0,6.4,4.4,6.2,7,0,.6-.6,1.2-1.9,1.3-1.9,0-6.7-4.4-6.6-6.1C512.2,424.2,512.9,423.3,514.4,423.4Zm-7.1-5.8c.3.3.2.9.5,1.9-7.5-2.2-15.9-15-14.8-21.5.3-1.7,1.1-2.9,2.7-3.2,2.1-.5,2.9,1.4,2.9,2.7C498.6,405.5,502.6,411.7,507.3,417.6Z" transform="translate(-405.35 -233)"/><path class="cls-8" d="M424.1,370.4c4-6.1,9.4-9.5,16.4-11.1a31.61,31.61,0,0,0,5.2-1.7c6.4-3,8.4-9.1,4.9-15.3a18.31,18.31,0,0,0-7.6-7,50.73,50.73,0,0,0-22.8-6.4c-4.4,3-6.6,7.8-9.4,12-6.9,10.6-7,21.7-1.7,33.1.5.1,1,.2,1.1.8C417.2,377.2,420,376.7,424.1,370.4Zm-1.4-35.1c4.9-1.7,19,3.3,21.7,7.6a8.61,8.61,0,0,1,.9,3.2c.2,3.7-.8,5.8-3.5,6.3-2.5.5-4.1-1.1-5-3.2-1.9-4.7-5.5-6.3-10.2-6.4a16.74,16.74,0,0,1-4.3-1,3.15,3.15,0,0,1-2.3-3.4C420,336.7,421.1,335.8,422.7,335.3Z" transform="translate(-405.35 -233)"/><path class="cls-9" d="M605.9,255c5.4,2.9,11.4,2,17,1.5,2.2-.2,5.9-.8,6.1-4.6.2-3.5.3-7.2-3.9-8.8-1.8-.7-2.9-2.1-4.3-3.3a26.47,26.47,0,0,0-17.5-6.8c-13.4-.2-23.6,6.5-31.5,16.6-2,2.6-5.5,5.1-4.9,9.4a38,38,0,0,0,5.9-.6A112.35,112.35,0,0,1,605.9,255Z" transform="translate(-405.35 -233)"/><path class="cls-10" d="M540,264.9c-.1-1.3-.1-2.7-.2-4-1-4.8-1.9-9.6-2.9-14.4-1.2-6-3-7.5-8.8-7.5a12.7,12.7,0,0,0-8.5,4.9c-7,8.4-11.2,18.3-15.1,28.3-1.9,4.9-6,8.8-6.5,14.3,1.6-.9,3.2-1.7,4.8-2.6C514.9,276.9,526.3,268.8,540,264.9Z" transform="translate(-405.35 -233)"/><path class="cls-9" d="M535.9,246.5c1,4.8,1.9,9.6,2.9,14.4-.2-3.1.8-5,3.7-7.1,5.6-4,12.3-6,17.8-10.3,2.7-2.2,3.3-4.3,2.4-6.6-1.2-3.2-4.7-2.1-6.4-1.2-2.9,1.5-5.7,1.3-8.7,1.3-5.3.1-10.6,0-15.9.1-1.7,0-3.8-.6-4.6,1.9C532.9,239,534.6,240.5,535.9,246.5Z" transform="translate(-405.35 -233)"/><path class="cls-5" d="M577.6,377c1.8-10-2.5-18.8-5.8-27.7-.7-1.9-2.4-1.2-2.9.3a50,50,0,0,1-4.4,9l-4.1,9.3-.5-.2h0c5.9,3.1,10.7,7.8,16.7,10.5C577,377.8,577.5,377.5,577.6,377Z" transform="translate(-405.35 -233)"/><path class="cls-5" d="M559.9,367.7Z" transform="translate(-405.35 -233)"/><path class="cls-11" d="M487.8,400c3.4-2.3,4.8-6,5.1-10.1-.5.4-1.2.6-1.6,1.1a81.58,81.58,0,0,1-7.1,8.3c-1.2,1.2-2.4,2.4-3.7,3.5a69,69,0,0,1-6,4.7c-.8.5-1.6,1.1-2.4,1.6a63.68,63.68,0,0,1-15.2,6.9c3.2,2,7.1.4,10.3,2.1,5.3-.5,8.4-5,12.7-7.2A19.24,19.24,0,0,1,487.8,400Z" transform="translate(-405.35 -233)"/><path class="cls-5" d="M467.2,418.2c4.9,1.4,9.7.5,14.5-.6l-1.8-6.6C475.6,413.2,472.6,417.6,467.2,418.2Z" transform="translate(-405.35 -233)"/><path class="cls-12" d="M922.9,361.9c.1-1.5-.3-2.7-2-3-3.6.6-6.9,2.6-10.7,2.6C914.4,363.9,918.7,363.1,922.9,361.9Z" transform="translate(-405.35 -233)"/><path class="cls-5" d="M562.1,463.1c-5.2-.3-8.6,2-11.1,5.8,1,.7,2,1.4,2.9,2.1C555.3,467.2,559.1,465.9,562.1,463.1Z" transform="translate(-405.35 -233)"/><path class="cls-5" d="M905,425a4.88,4.88,0,0,1-.3-.7,1.7,1.7,0,0,1,.1.7C904.9,425.1,904.9,425,905,425Z" transform="translate(-405.35 -233)"/><path class="cls-12" d="M618,490.4a23.91,23.91,0,0,1,3-5.4h0a8.8,8.8,0,0,0-3,.8c-2.5,1.3-3.6,3.8-4,6.9a4.35,4.35,0,0,0,.6.7,6.11,6.11,0,0,0,2.4.7A15.57,15.57,0,0,1,618,490.4Z" transform="translate(-405.35 -233)"/><path class="cls-12" d="M616,491.4a23.91,23.91,0,0,1,3-5.4h0A20.58,20.58,0,0,0,616,491.4Z" transform="translate(-405.35 -233)"/><path class="cls-12" d="M619.2,485.7c-.1.1-.1.2-.2.3h0C619.1,485.9,619.1,485.8,619.2,485.7Z" transform="translate(-405.35 -233)"/><path class="cls-12" d="M619,486Z" transform="translate(-405.35 -233)"/><path class="cls-13" d="M495.7,394.8A3.64,3.64,0,0,0,493,398c-1.2,6.6,7.3,19.4,14.8,21.5-.2-1-.2-1.6-.5-1.9-4.7-5.9-8.7-12.1-8.7-20.2C498.6,396.2,497.8,394.3,495.7,394.8Z" transform="translate(-405.35 -233)"/><path class="cls-13" d="M518.7,431.6c1.2,0,1.8-.6,1.9-1.3.1-2.6-4.1-7-6.2-7a2,2,0,0,0-2.2,2.1C512.1,427.3,516.8,431.7,518.7,431.6Z" transform="translate(-405.35 -233)"/><path class="cls-14" d="M422.2,341.9a16.74,16.74,0,0,0,4.3,1c4.7.1,8.3,1.6,10.2,6.4.8,2.1,2.4,3.7,5,3.2s3.6-2.6,3.5-6.3a5.68,5.68,0,0,0-.9-3.2c-2.6-4.3-16.8-9.3-21.7-7.6-1.5.5-2.7,1.4-2.7,3.1S420.6,341.4,422.2,341.9Z" transform="translate(-405.35 -233)"/><path class="cls-6" d="M714.7,338.9c7.9,3.4,12.4,8.8,13.8,17.4,2.2,13.4,9,18.7,22.5,18.7,9.2,0,16.8-3.6,23.2-9.9s12.9-11.8,22-13.9c5.5-1.3,8.1-6.4,7.2-12a16.89,16.89,0,0,0-8.3-12.5,58.48,58.48,0,0,0-12.8-5.6c-12.7-4-25.6-7.2-38.2-11.7-12.8-4.6-25.8-.3-34.1,10.6C704.1,327.9,705.7,335,714.7,338.9Z" transform="translate(-405.35 -233)"/><path class="cls-2" d="M507.1,309.9c.4-1.2.8-2.5,1.2-3.8-.5,1.3-.8,2.6-1.2,3.8a10,10,0,0,0-2,7.3A9.46,9.46,0,0,1,507.1,309.9Z" transform="translate(-405.35 -233)"/><path class="cls-10" d="M548.6,304.7a36.6,36.6,0,0,1-9.7-7.8c-2.6-3-4.8-6.4-7.3-9.4-4.8-5.9-9.2-5.9-13.7.1a35.63,35.63,0,0,1-12.2,10c-6,3.2-12.3,5.9-18.6,8.6-8.2,3.5-10.5,10.2-5.1,17.2,9.6,12.3,21.6,21.1,38.4,21.4,3-.3,6.1-.4,9.2-.9,9.7-1.4,18.2-5.1,24.2-13.4C561.1,320.7,559.2,311,548.6,304.7ZM516.7,329c-5.6.7-9.5-2.2-11.1-8.3a21.36,21.36,0,0,1-.6-3.5,10.47,10.47,0,0,1,2-7.3c.4-1.2.8-2.5,1.2-3.8a23.49,23.49,0,0,1,1.4-3.7c1.3-2.7,3.4-4.5,6.6-4.6,3.3-4.8,10.5-4.5,13.9.5C536.8,307.9,528.2,327.5,516.7,329Z" transform="translate(-405.35 -233)"/><path class="cls-15" d="M516.2,297.9c5.7.5,8.1,3.2,7.8,9.1-.3,5.6-4.7,10.9-9.2,10.7-5-.1-5.8-4.6-7.8-7.8a10,10,0,0,0-2,7.3,21.36,21.36,0,0,0,.6,3.5c1.5,6.1,5.4,9,11.1,8.3,11.6-1.5,20.2-21,13.5-30.7C526.7,293.3,519.5,293.1,516.2,297.9Z" transform="translate(-405.35 -233)"/><path class="cls-8" d="M514.8,317.7c4.4.1,8.9-5.1,9.2-10.7.3-5.9-2.1-8.7-7.8-9.1-3.2.1-5.3,1.9-6.6,4.6a23.49,23.49,0,0,0-1.4,3.7c-.4,1.3-.7,2.5-1.2,3.8C509,313.1,509.8,317.6,514.8,317.7Z" transform="translate(-405.35 -233)"/><path class="cls-1" d="M615.7,464.1c7-2.2,13.5-5.5,20.2-8.2a207.44,207.44,0,0,0,28-17.4,5.51,5.51,0,0,1,1.4-.9,4.8,4.8,0,0,1,1.7-.5l-57.2-29.6.2-.4h0c-7.4,13.4-14.9,26.8-26.7,37a11.13,11.13,0,0,1-8.6,2.8c-6.6-.3-13.4-.3-19.4,3.2-7.4,4.2-9,13.2-3.3,17.9,2.5-3.9,5.9-6.1,11.1-5.8-3,2.8-6.8,4.1-8.2,7.9.6,3.7,3.8,4.5,6.5,6,3.4,2,7.7.9,10.9,3.5,1.4,0,2.9-.1,4.3-.1C588.8,472.2,602.3,468.3,615.7,464.1Z" transform="translate(-405.35 -233)"/><path class="cls-1" d="M594.9,287.7Z" transform="translate(-405.35 -233)"/><path class="cls-1" d="M560.5,367.5l30.8-70.4c-4.4,6.1-11.5,8.1-18.9,5-7.2-3-12.2-8.5-15.7-15.3-2.5-4.9-2-10,.5-14.9,1-1.9,1.9-3.8,2.9-5.7-6.5-2-13.2-3-19.9-1.4-13.6,3.9-25.1,12-37.2,18.9-1.6.9-3.2,1.7-4.8,2.6-.3.2-.5.4-.8.6-17,8.8-35.2,14.9-52,23.9-9.1,4.9-17.8,10.3-25,17.9a50.73,50.73,0,0,1,22.8,6.4,18.31,18.31,0,0,1,7.6,7c3.5,6.2,1.5,12.3-4.9,15.3a22.64,22.64,0,0,1-5.2,1.7,25.67,25.67,0,0,0-16.4,11.1c-4.2,6.3-7,6.8-14,4.3v0c-.5,1.8.6,3.1,1.3,4.6a92.46,92.46,0,0,0,14.9,21.1c8.1,8.8,18.2,14.9,30.6,15.7h0a63.68,63.68,0,0,0,15.2-6.9c.8-.5,1.6-1,2.4-1.6a53.93,53.93,0,0,0,6-4.7c1.3-1.1,2.5-2.3,3.7-3.5a81.58,81.58,0,0,0,7.1-8.3c.4-.5,1.1-.7,1.6-1.1,1.8-4.3,5.8-7.4,7-11.8h0c-.4,11.8,1.9,22.8,9.8,32.1a29.22,29.22,0,0,1,3.7-2.4,120,120,0,0,0,35.8-26.5c4-4.4,7.8-9,11.7-13.5h0Zm-6.6-36.9c-6,8.2-14.5,11.9-24.2,13.4-3.1.5-6.3.6-9.2.9-16.8-.3-28.8-9.1-38.4-21.4-5.5-7-3.1-13.7,5.1-17.2,6.3-2.7,12.5-5.4,18.6-8.6a35.84,35.84,0,0,0,12.2-10c4.5-6,8.9-6,13.7-.1,2.5,3.1,4.7,6.4,7.3,9.4a38.7,38.7,0,0,0,9.7,7.8C559.2,311,561.1,320.7,553.9,330.6Z" transform="translate(-405.35 -233)"/><path class="cls-1" d="M609.2,407.6l57.9,29.9a5.46,5.46,0,0,1,1.4-2.6c.8-.8,1.7-1.6,2.5-2.4,6.5-7.1,8.6-15.5,8-24.9-.1-1.3-.5-2.9.7-3.7,1.5-1,2.8.5,4,1.3,5.3,3.4,7.5,8.8,5.8,15.6-1,4.2.2,5.4,4.3,5.3a207.92,207.92,0,0,0,65.9-11.4c7.9-2.8,7.8-2.9,4.9-10.5-2.2-5.8-2.6-11.8-2-18.2h0l-.3-.4.3-.2c-.2-.3-.3-.6-.5-.9h0l.3.4L826,335.3a.76.76,0,0,0,.2.5h.1a11.12,11.12,0,0,0-1.4-3.4c-2.7-4.4-.8-6.5,3-8.9,22.5-14.8,42.2-33,61.1-52,1.8-1.9,4.3-4,2.2-6.8-1.9-2.6-4.6-.9-6.8.2-5.7,3.1-11.5,6.1-17.1,9.4-18.6,11.2-37.6,21.5-59.1,26.2-6.9,1.5-13.9,3.8-21.1,1.9a91.34,91.34,0,0,0-22.7-3.1c-20.6-.2-40.6,4.7-60.6,8.5-17.4,3.4-34.9,4.9-52.6,2.4-8.6-1.3-16.2-5.8-24.3-8.9-10.7-4.1-21.5-8-31.7-13.2l-30.9,70.7a50,50,0,0,0,4.4-9c.5-1.4,2.2-2.2,2.9-.3,3.3,8.9,7.6,17.7,5.8,27.7-.1.4-.6.8-.9,1.1.8,2.5,3.2,3.3,5,4.6,8.6,6.5,18,12,25.3,20.1,1.4,1.5,3.2,2.7,1.9,5.1h0Zm101-87.6c8.3-10.8,21.3-15.1,34.1-10.6,12.6,4.5,25.5,7.7,38.2,11.7a58.48,58.48,0,0,1,12.8,5.6,16.89,16.89,0,0,1,8.3,12.5c.8,5.6-1.7,10.8-7.2,12-9.1,2.1-15.7,7.6-22,13.9s-14.1,9.9-23.2,9.9c-13.6,0-20.3-5.3-22.5-18.7-1.4-8.6-5.9-14-13.8-17.4C705.7,335,704.1,327.9,710.2,320Z" transform="translate(-405.35 -233)"/><path class="cls-1" d="M594.9,287.7Z" transform="translate(-405.35 -233)"/><polygon class="cls-1" points="94.65 145.1 94.65 145.1 94.65 145.1 94.65 145.1"/><path class="cls-1" d="M500,378.1Z" transform="translate(-405.35 -233)"/><path class="cls-1" d="M500,378.1Z" transform="translate(-405.35 -233)"/><path class="cls-1" d="M409.2,374.7h0v0Z" transform="translate(-405.35 -233)"/><path class="cls-1" d="M474.5,407.5a53.93,53.93,0,0,0,6-4.7A53.93,53.93,0,0,1,474.5,407.5Z" transform="translate(-405.35 -233)"/><path class="cls-1" d="M456.9,416h0a63.68,63.68,0,0,0,15.2-6.9A60,60,0,0,1,456.9,416Z" transform="translate(-405.35 -233)"/><path class="cls-1" d="M795.5,411.5a13.33,13.33,0,0,1,2,0,282.65,282.65,0,0,0,64.2,7.1,5.85,5.85,0,0,1,5.6,3.3c5,8.5,13.4,12.1,22.4,14.5a12.86,12.86,0,0,0,8.8-1c4.7-2.2,7.1-6,6.4-10.2-3.5,1.6-7,1.1-10.5-.7a6.55,6.55,0,0,0,2.8-.3,15.07,15.07,0,0,1-3.3-1.3c3.5.4,6.1-2.3,9.4-2.5a7.83,7.83,0,0,0-.6-5.8c-4.5-8.5-11.3-14.3-20.9-16a63.85,63.85,0,0,1-21.8-8.2c-.3.2-.6.4-1,.7-11.6-5.7-18.6-15.5-24-26.7a84.28,84.28,0,0,1-4.4-10.8,75.93,75.93,0,0,1-3.9-16.3c-.2-.5-.3-1.1-.5-1.6l-63.6,49.6C769.3,399.4,781.7,406.3,795.5,411.5Z" transform="translate(-405.35 -233)"/><path class="cls-1" d="M904.4,423.5h0a1.61,1.61,0,0,0,.3.9Z" transform="translate(-405.35 -233)"/><path class="cls-1" d="M858.9,391.1c.3-.2.6-.4,1-.7l-1.5-.9c-11.6-5.7-18.6-15.5-24-26.7a81.79,81.79,0,0,1-3.9-9.2,98,98,0,0,0,4.4,10.8C840.3,375.6,847.3,385.4,858.9,391.1Z" transform="translate(-405.35 -233)"/><path class="cls-1" d="M894.3,424.4c3.6,1.8,7,2.2,10.5.7,0-.2-.1-.5-.1-.7a6.89,6.89,0,0,0-.3-.8,10.59,10.59,0,0,1-7.2.6A9.47,9.47,0,0,1,894.3,424.4Z" transform="translate(-405.35 -233)"/><path class="cls-1" d="M762.3,384.8l-.3-.4h0a4.05,4.05,0,0,0,.5.9l63.6-49.6c-.1-.2-.1-.4-.2-.5Z" transform="translate(-405.35 -233)"/><path d="M559.9,367.7Z" transform="translate(-405.35 -233)"/><path d="M594.9,287.7Z" transform="translate(-405.35 -233)"/></svg>