<?xml version="1.0" encoding="utf-8"?>
<!-- Generator: Adobe Illustrator 23.0.1, SVG Export Plug-In . SVG Version: 6.00 Build 0)  -->
<svg version="1.1" id="Layer_1" xmlns="http://www.w3.org/2000/svg" xmlns:xlink="http://www.w3.org/1999/xlink" x="0px" y="0px"
	 viewBox="0 0 1366 768" style="enable-background:new 0 0 1366 768;" xml:space="preserve">
<style type="text/css">
	.st0{fill:#78A0A1;}
	.st1{fill:#BE946E;}
	.st2{fill:#DAD7CD;}
	.st3{fill:#7AA1A0;}
	.st4{fill:#FAF8E9;}
	.st5{fill:#E9B58C;}
	.st6{fill:#F1ECDF;}
	.st7{fill:#FDF8E8;}
	.st8{fill:#BE946D;}
	.st9{fill:#262221;}
	.st10{fill:#DCD7CD;}
	.st11{fill:#FCFCFA;}
	.st12{fill:#2F2C2C;}
	.st13{fill:#FAF9F5;}
	.st14{fill:#5F5A59;}
	.st15{fill:none;}
</style>
<path class="st0" d="M1040.1,512.1c5.7-4.5,11.5,0,17.3-0.1c32.5-0.6,64.9,2.5,97.2,4.4c17.4,1,35,2.3,51.9,7.7c0,1.3,0,2.7,0,4
	c-54.9,9.1-110.4,10.4-165.8,11.9C1042.3,530.6,1042.2,521.3,1040.1,512.1z"/>
<path class="st1" d="M344.7,504c-1.5-12.1-5.3-23.8-4.4-36.4c1.2-16.7,5.4-31.9,21.4-40.1c17-8.8,33.8-6.3,48.7,5.1
	c15.1,11.6,31.1,20.9,48.2,29.4c29.8,14.7,46.3,41.7,57.9,71.9c-13.8,3-27.6,4.9-41.8,4.2c-11.2-0.5-22.4,0-33.6-0.1
	c-4.2-0.1-7.8,0.8-10.7,4c-11-1-21,3.4-31.4,5.9c-7.1-2.6-10.4-10.8-18.9-11.6c-16.9-1.6-33.6-3.3-50.7-0.8
	c-13.7,1.9-28.2,3.4-38.9-9.2c7.9-6.1,17.9-5.3,26.7-8.4c7.7-2.6,16.5-1.7,23.2-7.5c2.3-0.4,4.2-1.2,4.3-4c1-0.9,2.3-1.9-0.2-2.5
	L344.7,504z M386.3,494.2c2,2.9,5.1,3.7,8.3,4.1c8.8,7.1,19,7.1,29.1,4.4c8.4-2.2,15.2-6.9,16.9-16.3c1.7-10-2.6-17.4-10.9-22.7
	c-11.7-7.6-24.4-8.7-37.1-3.7c-13.6,5.4-17.1,16.6-10.4,29.8c1-0.1,2-0.3,3-0.4C383.9,491.4,384.3,493,386.3,494.2z"/>
<path class="st2" d="M628.6,284.4c-9,9.5-21.3,14.2-31.4,22.2c-0.8,0.6-1.9,0.8-2.6,1.5c-9.1,9.1-18.1,8.5-27.6,0.3
	c-6.4-5.5-15.1-6.7-22.5-10.2c6.1-1.8,3.9-7,4.1-10.9c1.4-27.5,2.4-55,11.9-81.3c9-24.8,22.1-45.7,47.6-56.9c13-5.7,27.3-4,36.5,5.9
	c3.3,3.5,4.9,7.4,3.4,11.8c-1.7,5-5.7,0.8-8.6,1.4c-4.3,0.8-8.4,1.7-13.8,4.8c3.3,0.4,5.3,0.7,7.3,0.9c14,1.3,17.5,7.4,10.2,19.7
	c-5.8,9.7-12.4,19-23,24.2c-5.9,2.9-7.3,7.4-7.8,13.7c-1.3,16.3,2.8,30.8,11.9,44.1C626.1,278.2,628.6,280.8,628.6,284.4z"/>
<path class="st3" d="M430.4,542c2.9-3.2,6.5-4.1,10.7-4c11.2,0.1,22.4-0.4,33.6,0.1c14.2,0.7,28-1.2,41.8-4.2
	c3.9-0.2,7.9-0.4,11.8-0.6c9.5-0.8,19.1,1.7,28.7-0.2c1.9,0,3.7,0,5.6,0c1.3,0,2.7,0,4,0c3.4-0.1,6.8-0.1,10.1-0.2
	c2.8,1.1,5.5,1,8.2-0.5c48.3-1.5,96.6-2.9,144.8-4.4c2.3-0.1,4.7,0.4,6.6-1.6c35.4-2,70.7,1.3,106.2-3.3c23.3-3,47.3-1.5,70.1-9.1
	c15.4,0.6,30.8,1.1,46.2,1.7c5.9,0.3,11.8,0.3,17.7,1c15.5,2,23.8,10.9,24.3,25.6c-51.9,1.8-103.8,0.5-155.6,2.3
	c-73.9,2.5-147.7,1.1-221.5,1.3c-61.2,0.2-122.4-1.2-183.6-1.9C436.7,543.8,433.3,544.3,430.4,542z"/>
<path class="st2" d="M934.4,250c-30.3-11.3-62.4-12.1-94-16.1c4.9-14.8,9.7-29.6,14.9-44.3c2.2-6.1-0.3-10.2-3.7-14.5
	c-7.5-9.4-14.4-19-16.7-31.2c-2.2-11.9,2-24,10.4-29.3c3.1-2,6.7-3.8,10.4-2.1c4.1,1.8,1,5.3,1,8c0,5.5,1.5,10.2,5,16.6
	c1.2-7,0.6-12.2,2.1-17.2c1.8-6.3,5.3-7.2,10.4-4.8c17.2,8,30.4,19.6,36.1,38.6c7.4,24.8,11.9,50.3,18.3,75.3
	C930.4,236.1,932.5,243.1,934.4,250z"/>
<path class="st4" d="M1000.7,542.2c-0.5-14.7-8.8-23.7-24.3-25.6c-5.8-0.7-11.8-0.7-17.7-1c3.6-2.5,7.7-1.2,11.6-1.6
	c2.7-0.3,5.8-0.2,4.9-4.2c-3.1-15.2,2-28.5,9.2-41.4c25.5,5.8,45.3,18.7,55.6,43.8c2.1,9.2,2.2,18.5,0.6,27.8
	c-10.1,34.6-37.6,50.7-68,63.5c-10.9,4.6-21.5,10.7-33.9,10.6c-3.8,0-9.3,1.3-10-3.6c-0.6-4.2,4.4-6.2,8.3-7.2
	c16-4.1,30.4-11.6,43-22.2C991.9,570.9,1002,559.5,1000.7,542.2z"/>
<path class="st1" d="M400.8,325.8c-17.8,9.3-35.7,18.5-53.5,27.8c-9.2,4.8-16.6,11.8-24.3,18.5c-11.3-15.4-17.5-32.8-20.4-51.5
	c0-3-0.1-6-0.1-9c0-15.5,6.9-23.7,22-25.4c5.2-0.6,10.6-0.4,15.9,0.6c13.3,2.6,26.1,8.1,40,7.3c4.3,7.3,8.6,14.6,14.5,20.8
	C397.9,318,401.1,321,400.8,325.8z"/>
<path class="st5" d="M290.6,526.2c10.7,12.6,25.2,11.1,38.9,9.2c17.1-2.4,33.8-0.8,50.7,0.8c8.5,0.8,11.9,9,18.9,11.6
	c-2.7,15.8-3.5,21.2-21.9,22c-12.8,0.6-25,4.8-38.1,4.1c-16.5-0.9-32.4-4.3-48-9c-12.9-3.8-18.1-12.7-18.4-27.1
	C276.9,531.5,280.2,523.4,290.6,526.2z"/>
<path class="st5" d="M380.4,294.2c-13.9,0.7-26.7-4.7-40-7.3c-5.3-1-10.7-1.2-15.9-0.6c-15.1,1.7-22,9.9-22,25.4c0,3,0.1,6,0.1,9
	c-2.2-13.6-2.3-26.8,0.6-40.8c2.2-10.4,6.2-18.3,14.3-23.7c11.8-7.8,24.8-13.8,39.3-14.2c7.6-0.2,15.3-1.3,22.7,1.6
	c14.2,5.4,19.7,18,24.4,30.7c3.1,8.4-4.5,18.3-13.5,19.4C387,294.1,383.7,294,380.4,294.2z"/>
<path class="st3" d="M290.6,526.2c-10.4-2.7-13.6,5.3-18,11.8c-27.7-3-55.7-3.4-83.2-8c-2-0.3-3.9-0.8-5.8-1.4
	c-1.8-0.6-4.3-0.8-3.8-3.6c0.3-1.7,2.2-2.4,3.9-2.7c8.5-1.4,17-3.2,25.6-4.1c15.8-1.6,31.7-3.1,47.6-4c27.9-1.5,55.8-2.6,83.6-3.9
	c-6.7,5.8-15.5,4.9-23.2,7.5C308.4,520.9,298.5,520.1,290.6,526.2z"/>
<path class="st6" d="M972.7,289.9c-19.7,7-40.3,10.7-60,17.8c-19.3,7-38.9,12.9-57.5,21.8c-8.8,4.2-18.6,6.2-28.6,13.7
	c2.3-8.3,6.8-11.2,10.7-14.4c35.7-29,77.6-40.6,122.7-42.8c3-0.1,6,0.4,8.5-1.9C970.8,285.3,972.2,287.2,972.7,289.9z"/>
<path class="st6" d="M984.5,468.3c-7.2,12.9-12.4,26.2-9.2,41.4c0.8,4.1-2.2,4-4.9,4.2c-3.9,0.4-8-1-11.6,1.6
	c-15.4-0.6-30.8-1.1-46.2-1.7c0-1.3,0.1-2.6,0.1-3.8c19.8-1.1,31.1-14.2,40.1-29.7c4.3-7.4,9.9-13.6,15-20.3
	C972.3,464.7,979.7,463.9,984.5,468.3z"/>
<path class="st6" d="M670.4,265.9c-0.2,16.6,1,33,5.4,49.2c0.8,3.1,2.3,7.7-0.8,9.1c-4.1,1.9-6-2.9-8-5.6
	c-6.7-8.9-7.5-19.5-8.4-30.1c-0.5-5.5,1.8-11.3-1.9-16.4C660.5,268.6,665.1,266.4,670.4,265.9z"/>
<path class="st6" d="M767.7,163.9c-6.5-4.4-14.4-3.1-23.5-5.5c6.2-3.4,11-4.8,16.2-4.4c6,0.4,8.6-2.2,8.1-8.1
	C773.3,152.2,767.3,157.9,767.7,163.9z"/>
<path class="st6" d="M1089.9,236.2c-9.5,0.9-9.9,1.3-16.9,17.3c-1.7-8.6-0.6-16.5,5.3-23.2C1082.2,232.3,1086.1,234.2,1089.9,236.2z
	"/>
<path class="st7" d="M344.5,503.9c2.5,0.6,1.2,1.6,0.2,2.5C344.7,505.5,344.6,504.7,344.5,503.9z"/>
<path class="st8" d="M912.6,510c0,1.3-0.1,2.6-0.1,3.8c-22.8,7.7-46.8,6.1-70.1,9.1c-35.5,4.6-70.9,1.3-106.2,3.3
	c-27.2-24.9-29.2-61.4-5.1-84.4c11-10.5,24.9-12.2,38.7-13.3c30.7-2.5,56.7-14.9,79.9-34.7c19.8-16.9,36.5-18.9,55.7-8.2
	c14.5,8.1,18.4,18.2,11.6,33.1c-4.5,10-10.5,19.2-15.5,29c-8.2,16-9.9,31.5,3.3,46.2C908.8,498.4,910.9,504.2,912.6,510z"/>
<path class="st9" d="M563.4,408.1c-0.8,2.5-1,5.4-2.4,7.5c-10.3,15.2-17.7,31.3-21.3,49.6c-2.1,10.7-14.9,12.2-22.9,3.6
	c-7.6-8.1-9.5-18.8-12.1-29c-4.1-16.4-6.1-33.2-7.7-50.1c-0.9-9.7-0.4-19.3,3.6-28.4c5.6-12.9,16.9-14.9,27.1-5.2
	c0.2,0.2,0.6,0.4,0.7,0.7c9.1,15.7,19.3,30.4,34.5,41C563,401.3,563.2,404.7,563.4,408.1z M506.1,415.6c2.4,18.5,5.4,34.6,17.2,47.6
	c3.7,4.1,6.6,1.6,7.4-2.9c0.8-4.2-1.1-7.9-3.9-10.8c-6.6-6.8-10.4-15.2-13.4-24C512.3,422.5,512.4,418.8,506.1,415.6z"/>
<path class="st10" d="M556.9,533.1c-9.5,1.9-19.1-0.6-28.7,0.2c11.5-7,24.8-10.3,36.1-18c34.3-23.6,52.7-56.2,56.1-97.4
	c2.2-27.1-3.3-52.6-16.8-76.5c20.9,10.8,33.5,28.2,38.1,50.4c6.4,30.6,4.6,61-10,89.4c-14.3,27.9-37,44.6-68.4,48.8
	C560.9,530.3,557.9,529.6,556.9,533.1z"/>
<path class="st11" d="M371.1,382c-7-3.5-9.1-12.3-4.8-19.7c8.2-14.2,19.9-20,36.2-17.1c5.6,1,11.8-0.7,16.7,4.6
	c12.5,13.5,9.7,29.7-7.3,37.7c-7.4,3.5-14.5,10.4-23.7,4c3.8-2.6,7.5-5.3,8.2-10.4c1-7.3-3.8-14.1-11-15
	C377.4,365,372,371,371.1,382z"/>
<path class="st10" d="M563.4,408.1c-0.2-3.4-0.4-6.8-0.6-10.2c16.9-4.6,24.1-13.9,26.6-31.4c5.3,8.8,4.1,19.3-3.9,27.3
	c-4.6,4.6-7.6,7.1,0.7,11.7c12.1,6.8,14.4,18.5,11.4,32.1C594.2,417,583.4,407.8,563.4,408.1z"/>
<path class="st12" d="M371.1,382c0.8-11,6.3-17,14.4-15.9c7.2,1,12.1,7.7,11,15c-0.7,5.1-4.4,7.8-8.2,10.4
	C380,393.1,374.6,389.4,371.1,382z M381.4,380.9c-2.5-1.1-4.9-1.5-5,2.1c-0.1,3.2,2.2,4.5,5.2,4.9c2.9,0.4,6.1-0.5,6.4-3.3
	C388.3,379.7,383.3,382.4,381.4,380.9z"/>
<path class="st10" d="M584.8,532.3c-2.6,1.5-5.3,1.6-8.2,0.5C579.3,531.5,582,531.8,584.8,532.3z"/>
<path class="st10" d="M566.5,533c-1.3,0-2.7,0-4,0C563.8,532,565.2,532,566.5,533z"/>
<path class="st13" d="M382.1,489.8c-6.7-13.2-3.1-24.4,10.4-29.8c12.7-5,25.3-3.9,37.1,3.7c8.3,5.4,12.6,12.7,10.9,22.7
	c-1.6,9.4-8.5,14.2-16.9,16.3c-10.1,2.6-20.2,2.6-29.1-4.4c8.4-0.5,13.1-5.4,13-13.4c-0.1-7.1-5-11.5-12.1-12.2
	C387.4,472,382.7,478.3,382.1,489.8z"/>
<path class="st12" d="M382.1,489.8c0.5-11.6,5.2-17.9,13.3-17.1c7.2,0.7,12.1,5.1,12.1,12.2c0.1,8-4.6,12.9-13,13.4
	c-3.3-0.4-6.3-1.2-8.3-4.1c0.6-0.6,1.1-1.1,1.7-1.7c3,1.3,6.8,3.5,8.3-1c1.5-4.4-3.8-4.9-6.1-6.4c-4.3-2.8-4.4,1.5-4.9,4.3l0,0
	C384.2,489.6,383.2,489.7,382.1,489.8z"/>
<path class="st12" d="M386.3,494.2c-1.9-1.2-2.3-2.8-1.1-4.8c0,0,0,0,0,0c0.9,1,1.8,2.1,2.7,3.1
	C387.4,493.1,386.8,493.7,386.3,494.2z"/>
<path class="st14" d="M506.1,415.6c6.3,3.2,6.2,6.8,7.3,9.9c3,8.8,6.8,17.2,13.4,24c2.8,2.9,4.8,6.5,3.9,10.8
	c-0.9,4.5-3.7,7.1-7.4,2.9C511.5,450.2,508.4,434.1,506.1,415.6z"/>
<path class="st13" d="M381.4,380.9c1.9,1.6,6.9-1.1,6.5,3.7c-0.3,2.9-3.4,3.7-6.4,3.3c-2.9-0.4-5.3-1.7-5.2-4.9
	C376.4,379.4,378.8,379.8,381.4,380.9z"/>
<path class="st6" d="M387.9,492.5c-0.9-1-1.8-2.1-2.7-3.1c0.6-2.8,0.6-7.1,4.9-4.3c2.3,1.5,7.6,2,6.1,6.4
	C394.7,496,391,493.9,387.9,492.5z"/>
<path class="st15" d="M586.2,405.5c-8.3-4.6-5.3-7.1-0.7-11.7c8-8,9.2-18.5,3.9-27.3c-2.5,17.5-9.7,26.8-26.6,31.4
	c-15.2-10.6-25.4-25.3-34.5-41c-0.2-0.3-0.5-0.5-0.7-0.7c-10.2-9.8-21.4-7.7-27.1,5.2c-3.9,9-4.5,18.7-3.6,28.4
	c1.6,16.8,3.6,33.6,7.7,50.1c2.6,10.2,4.5,20.9,12.1,29c8,8.6,20.8,7.1,22.9-3.6c3.6-18.3,11.1-34.4,21.3-49.6
	c1.4-2.1,1.6-5,2.4-7.5c20-0.4,30.8,8.8,34.2,29.5C600.6,424.1,598.3,412.3,586.2,405.5z"/>
<path class="st15" d="M402.6,345.2c-16.3-2.9-28,2.9-36.2,17.1c-4.3,7.4-2.2,16.2,4.8,19.7c3.4,7.4,8.9,11.1,17.2,9.5
	c9.2,6.5,16.3-0.4,23.7-4c17-8.1,19.8-24.3,7.3-37.7C414.4,344.5,408.2,346.2,402.6,345.2z"/>
<path class="st7" d="M586.9,313.5l0.5-0.3c-6.7,3.1-13.4,1.2-20.4-4.9c-6.4-5.5-15.1-6.7-22.5-10.2c-17.9-5.1-36.1-5.4-54.4-2.9
	c-31.8,4.2-60.6,17.4-89.3,30.6c-17.8,9.3-35.7,18.5-53.5,27.8c-9.2,4.8-16.6,11.8-24.3,18.5c-3.4,6.1-7.4,11.9-10.1,18.3
	c-11.9,27.5-4.2,54.3,4.8,80.4c4.8,13.7,13,26.2,27,33.1c-1.5-12.1-5.3-23.8-4.4-36.4c1.2-16.7,5.4-31.9,21.4-40.1
	c17-8.8,33.8-6.3,48.7,5.1c15.1,11.6,31.1,20.9,48.2,29.4c29.8,14.7,46.3,41.7,57.9,71.9c3.9-0.2,7.9-0.4,11.8-0.6
	c11.5-7,24.8-10.3,36.1-18c34.3-23.6,52.7-56.2,56.1-97.4c2.1-26.2-2.9-51-15.6-74.3l-0.4,0.2L586.9,313.5z M412,387.6
	c-7.4,3.5-14.5,10.4-23.7,4c-8.3,1.5-13.8-2.2-17.2-9.5c-7-3.5-9.1-12.3-4.8-19.7c8.2-14.2,19.9-20,36.2-17.1
	c5.6,1,11.8-0.7,16.7,4.6C431.8,363.3,429,379.5,412,387.6z M597.6,437.6c-3.4-20.6-14.2-29.8-34.2-29.5c-0.8,2.5-1,5.4-2.4,7.5
	c-10.3,15.2-17.7,31.3-21.3,49.6c-2.1,10.7-14.9,12.2-22.9,3.6c-7.6-8.1-9.5-18.8-12.1-29c-4.1-16.4-6.1-33.2-7.7-50.1
	c-0.9-9.7-0.4-19.3,3.6-28.4c5.6-12.9,16.9-14.9,27.1-5.2c0.2,0.2,0.6,0.4,0.7,0.7c9.1,15.7,19.3,30.4,34.5,41
	c16.9-4.6,24.1-13.9,26.6-31.4c5.3,8.8,4.1,19.3-3.9,27.3c-4.6,4.6-7.6,7.1,0.7,11.7C598.3,412.3,600.6,424.1,597.6,437.6z"/>
<polygon points="604.9,343.5 604.9,343.5 604.9,343.5 "/>
<path d="M587.8,313l-0.4,0.2C587.6,313.2,587.7,313.1,587.8,313L587.8,313z"/>
<path d="M604.8,343.4C604.8,343.4,604.8,343.3,604.8,343.4l-0.1-0.2c-0.1-0.1-0.1-0.2-0.2-0.4c0.1,0.3,0.3,0.5,0.4,0.8l0,0
	c0,0,0,0,0,0L604.8,343.4z"/>
<path d="M604.4,342.8l0.2,0.4c0,0.1,0.1,0.1,0.1,0.2l0,0.1c0.1,0.1,0.1,0.1,0.1,0.2l0,0l0.4-0.3l-0.9-1.6c-0.3-0.1-0.5-0.3-0.8-0.4
	C603.9,341.8,604.2,342.3,604.4,342.8z"/>
<path class="st7" d="M737.8,241.3c-7.2-11.6-2.6-31.8,8.6-39.7c12.8-9,22.6-20.3,23.3-37.1c-6.5-4.4-14.4-3.1-23.5-5.5
	c6.2-3.4,11-4.8,16.2-4.4c6,0.4,8.6-2.2,8.1-8.1c-5.8-12.1-18.8-18.1-32.4-13.4c-18,6.2-32.8,16.4-42.8,33.6
	c-17.8,30.9-21.8,64.6-23,99.2l67.5-22.5C739.2,243,738.4,242.4,737.8,241.3z"/>
<polygon class="st7" points="670.4,265.9 670.4,265.9 670.4,265.9 "/>
<path class="st7" d="M1112.2,281.1c-1.2-17.8-7.7-33.5-22.3-44.9c-9.5,0.9-9.9,1.3-16.9,17.3c-1.7-8.6-0.6-16.5,5.3-23.2
	c-7.1-6-14.2-4.2-20.9,0.5c-9.5,6.7-14.5,16.5-12.4,27.5c2.2,11.3-2.8,14.7-12,16.5c-1.9,0.4-3.7,1.4-5.7,1.8
	c-18.2,4.6-35.3,13.4-54.7,13.3c-19.7,7-40.3,10.7-60,17.8c-19.3,7-38.9,12.9-57.5,21.8c-8.8,4.2-18.6,6.2-28.6,13.7
	c2.3-8.3,6.8-11.2,10.7-14.4c35.7-29,77.6-40.6,122.7-42.8c3-0.1,6,0.4,8.5-1.9c-8.5-14.2-20.9-24.4-34-34
	c-30.3-11.3-62.4-12.1-94-16.1c-32.6-0.7-64.9,2.3-96.9,8.4c-1.7,0.3-3.3,1-4.9,0.7l0.2,0.5l-68.3,22.8l-0.2-0.5l0,0
	c-0.2,16.6,1,33,5.4,49.2c0.8,3.1,2.3,7.7-0.8,9.1c-4.1,1.9-6-2.9-8-5.6c-6.7-8.9-7.5-19.5-8.4-30.1c-0.5-5.5,1.8-11.3-1.9-16.4
	c-10.3,2-17.5,10.9-28,12.4c-9,9.5-21.3,14.2-31.4,22.2c-0.8,0.6-1.9,0.8-2.6,1.5c-2.3,2.3-4.5,3.9-6.8,5l16.6,28.7
	c20.4,10.8,32.8,28.1,37.3,49.9c6.4,30.6,4.6,61-10,89.4c-14.3,27.9-37,44.6-68.4,48.8c-2.6,0.3-5.5-0.4-6.5,3.1c1.9,0,3.7,0,5.6,0
	c1.3-1.1,2.7-1.1,4,0c3.4-0.1,6.8-0.1,10.1-0.2c2.6-1.3,5.4-1.1,8.1-0.5c48.3-1.5,96.6-2.9,144.8-4.4c2.3-0.1,4.7,0.4,6.6-1.6
	c-27.2-24.9-29.2-61.4-5.1-84.4c11-10.5,24.9-12.2,38.7-13.3c30.7-2.5,56.7-14.9,79.9-34.7c19.8-16.9,36.5-18.9,55.7-8.2
	c14.5,8.1,18.4,18.2,11.6,33.1c-4.5,10-10.5,19.2-15.5,29c-8.2,16-9.9,31.5,3.3,46.2c4,4.5,6.1,10.2,7.8,16
	c19.8-1.1,31.1-14.2,40.1-29.7c4.3-7.4,9.9-13.6,15-20.3c21.3-26.3,39.8-54.8,62.7-79.9c23.5-25.7,43.3-54.8,71.3-76.3
	C1109,298.1,1112.8,290.1,1112.2,281.1z"/>
<polygon points="670.4,265.9 670.4,265.9 670.4,265.9 "/>
<path d="M670.3,265.4l0.2,0.5c0-0.2,0-0.4,0-0.5L670.3,265.4z"/>
<path d="M738.5,242.6l-0.6,0.2c0.3,0.1,0.5,0.2,0.8,0.3L738.5,242.6z"/>
</svg>
